<svg class="toyplot-canvas-Canvas" height="800.0px" id="t30e5b5e8bd7d4ab89cb2f3bcdbd5fabf" preserveAspectRatio="xMidYMid meet" style="background-color:transparent;border-color:#292724;border-style:none;border-width:1.0;fill:rgb(16.1%,15.3%,14.1%);fill-opacity:1.0;font-family:Helvetica;font-size:12px;opacity:1.0;stroke:rgb(16.1%,15.3%,14.1%);stroke-opacity:1.0;stroke-width:1.0" viewBox="0 0 600.0 800.0" width="600.0px" xmlns="http://www.w3.org/2000/svg" xmlns:toyplot="http://www.sandia.gov/toyplot" xmlns:xlink="http://www.w3.org/1999/xlink"><g class="toyplot-coordinates-Cartesian" id="t1ed0285e3e834e19b41556078b1b6406"><clipPath id="t8e2896be370d4768bf4601ff9c187e43"><rect height="740.0" width="540.0" x="30.0" y="30.0" /></clipPath><g clip-path="url(#t8e2896be370d4768bf4601ff9c187e43)"><g class="toytree-mark-Toytree" id="t59cfdf5c3193432d9f8b38fed73975af"><g class="toytree-Edges" style="fill:none;stroke:rgb(14.9%,14.9%,14.9%);stroke-linecap:round;stroke-opacity:1;stroke-width:2"><path d="M 50.0 183.0 L 50.0 301.1 L 85.9 301.1" id="76,75" /><path d="M 85.9 301.1 L 85.9 134.3 L 121.8 134.3" id="75,74" /><path d="M 85.9 301.1 L 85.9 467.9 L 157.7 467.9" id="75,73" /><path d="M 121.8 134.3 L 121.8 95.7 L 337.1 95.7" id="74,72" /><path d="M 121.8 134.3 L 121.8 173.0 L 157.7 173.0" id="74,71" /><path d="M 157.7 467.9 L 157.7 383.0 L 229.5 383.0" id="73,70" /><path d="M 157.7 467.9 L 157.7 552.8 L 193.6 552.8" id="73,69" /><path d="M 337.1 95.7 L 337.1 108.8 L 373.0 108.8" id="72,68" /><path d="M 157.7 173.0 L 157.7 210.8 L 193.6 210.8" id="71,67" /><path d="M 229.5 383.0 L 229.5 355.0 L 373.0 355.0" id="70,66" /><path d="M 229.5 383.0 L 229.5 411.0 L 265.4 411.0" id="70,65" /><path d="M 193.6 552.8 L 193.6 495.7 L 373.0 495.7" id="69,64" /><path d="M 193.6 552.8 L 193.6 609.9 L 229.5 609.9" id="69,63" /><path d="M 193.6 210.8 L 193.6 168.2 L 301.2 168.2" id="67,62" /><path d="M 193.6 210.8 L 193.6 253.4 L 229.5 253.4" id="67,61" /><path d="M 265.4 411.0 L 265.4 390.2 L 373.0 390.2" id="65,60" /><path d="M 265.4 411.0 L 265.4 431.9 L 301.2 431.9" id="65,59" /><path d="M 229.5 609.9 L 229.5 551.7 L 265.4 551.7" id="63,58" /><path d="M 229.5 609.9 L 229.5 668.2 L 265.4 668.2" id="63,57" /><path d="M 301.2 168.2 L 301.2 183.6 L 337.1 183.6" id="62,56" /><path d="M 229.5 253.4 L 229.5 231.9 L 373.0 231.9" id="61,55" /><path d="M 229.5 253.4 L 229.5 274.8 L 265.4 274.8" id="61,54" /><path d="M 301.2 431.9 L 301.2 447.3 L 337.1 447.3" id="59,53" /><path d="M 265.4 551.7 L 265.4 530.8 L 373.0 530.8" id="58,52" /><path d="M 265.4 551.7 L 265.4 572.6 L 301.2 572.6" id="58,51" /><path d="M 265.4 668.2 L 265.4 640.7 L 337.1 640.7" id="57,50" /><path d="M 265.4 668.2 L 265.4 695.7 L 301.2 695.7" id="57,49" /><path d="M 337.1 183.6 L 337.1 196.8 L 373.0 196.8" id="56,48" /><path d="M 265.4 274.8 L 265.4 291.3 L 301.2 291.3" id="54,47" /><path d="M 337.1 447.3 L 337.1 460.5 L 373.0 460.5" id="53,46" /><path d="M 301.2 572.6 L 301.2 588.0 L 337.1 588.0" id="51,45" /><path d="M 337.1 640.7 L 337.1 653.9 L 373.0 653.9" id="50,44" /><path d="M 301.2 695.7 L 301.2 711.0 L 337.1 711.0" id="49,43" /><path d="M 301.2 291.3 L 301.2 306.6 L 337.1 306.6" id="47,42" /><path d="M 337.1 588.0 L 337.1 601.2 L 373.0 601.2" id="45,41" /><path d="M 337.1 711.0 L 337.1 724.2 L 373.0 724.2" id="43,40" /><path d="M 337.1 306.6 L 337.1 319.8 L 373.0 319.8" id="42,39" /><path d="M 50.0 183.0 L 50.0 64.9 L 408.9 64.9" id="76,38" /><path d="M 337.1 95.7 L 337.1 82.5 L 408.9 82.5" id="72,37" /><path d="M 373.0 108.8 L 373.0 100.1 L 408.9 100.1" id="68,36" /><path d="M 373.0 108.8 L 373.0 117.6 L 408.9 117.6" id="68,35" /><path d="M 157.7 173.0 L 157.7 135.2 L 408.9 135.2" id="71,34" /><path d="M 301.2 168.2 L 301.2 152.8 L 408.9 152.8" id="62,33" /><path d="M 337.1 183.6 L 337.1 170.4 L 408.9 170.4" id="56,32" /><path d="M 373.0 196.8 L 373.0 188.0 L 408.9 188.0" id="48,31" /><path d="M 373.0 196.8 L 373.0 205.5 L 408.9 205.5" id="48,30" /><path d="M 373.0 231.9 L 373.0 223.1 L 408.9 223.1" id="55,29" /><path d="M 373.0 231.9 L 373.0 240.7 L 408.9 240.7" id="55,28" /><path d="M 265.4 274.8 L 265.4 258.3 L 408.9 258.3" id="54,27" /><path d="M 301.2 291.3 L 301.2 275.9 L 408.9 275.9" id="47,26" /><path d="M 337.1 306.6 L 337.1 293.5 L 408.9 293.5" id="42,25" /><path d="M 373.0 319.8 L 373.0 311.0 L 408.9 311.0" id="39,24" /><path d="M 373.0 319.8 L 373.0 328.6 L 408.9 328.6" id="39,23" /><path d="M 373.0 355.0 L 373.0 346.2 L 408.9 346.2" id="66,22" /><path d="M 373.0 355.0 L 373.0 363.8 L 408.9 363.8" id="66,21" /><path d="M 373.0 390.2 L 373.0 381.4 L 408.9 381.4" id="60,20" /><path d="M 373.0 390.2 L 373.0 399.0 L 408.9 399.0" id="60,19" /><path d="M 301.2 431.9 L 301.2 416.5 L 408.9 416.5" id="59,18" /><path d="M 337.1 447.3 L 337.1 434.1 L 408.9 434.1" id="53,17" /><path d="M 373.0 460.5 L 373.0 451.7 L 408.9 451.7" id="46,16" /><path d="M 373.0 460.5 L 373.0 469.3 L 408.9 469.3" id="46,15" /><path d="M 373.0 495.7 L 373.0 486.9 L 408.9 486.9" id="64,14" /><path d="M 373.0 495.7 L 373.0 504.4 L 408.9 504.4" id="64,13" /><path d="M 373.0 530.8 L 373.0 522.0 L 408.9 522.0" id="52,12" /><path d="M 373.0 530.8 L 373.0 539.6 L 408.9 539.6" id="52,11" /><path d="M 301.2 572.6 L 301.2 557.2 L 408.9 557.2" id="51,10" /><path d="M 337.1 588.0 L 337.1 574.8 L 408.9 574.8" id="45,9" /><path d="M 373.0 601.2 L 373.0 592.4 L 408.9 592.4" id="41,8" /><path d="M 373.0 601.2 L 373.0 609.9 L 408.9 609.9" id="41,7" /><path d="M 337.1 640.7 L 337.1 627.5 L 408.9 627.5" id="50,6" /><path d="M 373.0 653.9 L 373.0 645.1 L 408.9 645.1" id="44,5" /><path d="M 373.0 653.9 L 373.0 662.7 L 408.9 662.7" id="44,4" /><path d="M 301.2 695.7 L 301.2 680.3 L 408.9 680.3" id="49,3" /><path d="M 337.1 711.0 L 337.1 697.9 L 408.9 697.9" id="43,2" /><path d="M 373.0 724.2 L 373.0 715.4 L 408.9 715.4" id="40,1" /><path d="M 373.0 724.2 L 373.0 733.0 L 408.9 733.0" id="40,0" /></g><g class="toytree-AlignEdges" style="stroke:rgb(66.3%,66.3%,66.3%);stroke-dasharray:2, 4;stroke-linecap:round;stroke-opacity:1.0;stroke-width:2"><path d="M 408.9 733.0 L 408.9 733.0" /><path d="M 408.9 715.4 L 408.9 715.4" /><path d="M 408.9 697.9 L 408.9 697.9" /><path d="M 408.9 680.3 L 408.9 680.3" /><path d="M 408.9 662.7 L 408.9 662.7" /><path d="M 408.9 645.1 L 408.9 645.1" /><path d="M 408.9 627.5 L 408.9 627.5" /><path d="M 408.9 609.9 L 408.9 609.9" /><path d="M 408.9 592.4 L 408.9 592.4" /><path d="M 408.9 574.8 L 408.9 574.8" /><path d="M 408.9 557.2 L 408.9 557.2" /><path d="M 408.9 539.6 L 408.9 539.6" /><path d="M 408.9 522.0 L 408.9 522.0" /><path d="M 408.9 504.4 L 408.9 504.4" /><path d="M 408.9 486.9 L 408.9 486.9" /><path d="M 408.9 469.3 L 408.9 469.3" /><path d="M 408.9 451.7 L 408.9 451.7" /><path d="M 408.9 434.1 L 408.9 434.1" /><path d="M 408.9 416.5 L 408.9 416.5" /><path d="M 408.9 399.0 L 408.9 399.0" /><path d="M 408.9 381.4 L 408.9 381.4" /><path d="M 408.9 363.8 L 408.9 363.8" /><path d="M 408.9 346.2 L 408.9 346.2" /><path d="M 408.9 328.6 L 408.9 328.6" /><path d="M 408.9 311.0 L 408.9 311.0" /><path d="M 408.9 293.5 L 408.9 293.5" /><path d="M 408.9 275.9 L 408.9 275.9" /><path d="M 408.9 258.3 L 408.9 258.3" /><path d="M 408.9 240.7 L 408.9 240.7" /><path d="M 408.9 223.1 L 408.9 223.1" /><path d="M 408.9 205.5 L 408.9 205.5" /><path d="M 408.9 188.0 L 408.9 188.0" /><path d="M 408.9 170.4 L 408.9 170.4" /><path d="M 408.9 152.8 L 408.9 152.8" /><path d="M 408.9 135.2 L 408.9 135.2" /><path d="M 408.9 117.6 L 408.9 117.6" /><path d="M 408.9 100.1 L 408.9 100.1" /><path d="M 408.9 82.5 L 408.9 82.5" /><path d="M 408.9 64.9 L 408.9 64.9" /></g><g class="toytree-Nodes" style="fill:rgb(100%,100%,100%);fill-opacity:1.0;stroke:rgb(0%,0%,0%);stroke-opacity:1.0;stroke-width:1"><g id="node-0" transform="translate(408.920,733.020)"><circle r="0.0" /></g><g id="node-1" transform="translate(408.920,715.438)"><circle r="0.0" /></g><g id="node-2" transform="translate(408.920,697.856)"><circle r="0.0" /></g><g id="node-3" transform="translate(408.920,680.273)"><circle r="0.0" /></g><g id="node-4" transform="translate(408.920,662.691)"><circle r="0.0" /></g><g id="node-5" transform="translate(408.920,645.109)"><circle r="0.0" /></g><g id="node-6" transform="translate(408.920,627.526)"><circle r="0.0" /></g><g id="node-7" transform="translate(408.920,609.944)"><circle r="0.0" /></g><g id="node-8" transform="translate(408.920,592.361)"><circle r="0.0" /></g><g id="node-9" transform="translate(408.920,574.779)"><circle r="0.0" /></g><g id="node-10" transform="translate(408.920,557.197)"><circle r="0.0" /></g><g id="node-11" transform="translate(408.920,539.614)"><circle r="0.0" /></g><g id="node-12" transform="translate(408.920,522.032)"><circle r="0.0" /></g><g id="node-13" transform="translate(408.920,504.449)"><circle r="0.0" /></g><g id="node-14" transform="translate(408.920,486.867)"><circle r="0.0" /></g><g id="node-15" transform="translate(408.920,469.285)"><circle r="0.0" /></g><g id="node-16" transform="translate(408.920,451.702)"><circle r="0.0" /></g><g id="node-17" transform="translate(408.920,434.120)"><circle r="0.0" /></g><g id="node-18" transform="translate(408.920,416.537)"><circle r="0.0" /></g><g id="node-19" transform="translate(408.920,398.955)"><circle r="0.0" /></g><g id="node-20" transform="translate(408.920,381.373)"><circle r="0.0" /></g><g id="node-21" transform="translate(408.920,363.790)"><circle r="0.0" /></g><g id="node-22" transform="translate(408.920,346.208)"><circle r="0.0" /></g><g id="node-23" transform="translate(408.920,328.626)"><circle r="0.0" /></g><g id="node-24" transform="translate(408.920,311.043)"><circle r="0.0" /></g><g id="node-25" transform="translate(408.920,293.461)"><circle r="0.0" /></g><g id="node-26" transform="translate(408.920,275.878)"><circle r="0.0" /></g><g id="node-27" transform="translate(408.920,258.296)"><circle r="0.0" /></g><g id="node-28" transform="translate(408.920,240.714)"><circle r="0.0" /></g><g id="node-29" transform="translate(408.920,223.131)"><circle r="0.0" /></g><g id="node-30" transform="translate(408.920,205.549)"><circle r="0.0" /></g><g id="node-31" transform="translate(408.920,187.966)"><circle r="0.0" /></g><g id="node-32" transform="translate(408.920,170.384)"><circle r="0.0" /></g><g id="node-33" transform="translate(408.920,152.802)"><circle r="0.0" /></g><g id="node-34" transform="translate(408.920,135.219)"><circle r="0.0" /></g><g id="node-35" transform="translate(408.920,117.637)"><circle r="0.0" /></g><g id="node-36" transform="translate(408.920,100.055)"><circle r="0.0" /></g><g id="node-37" transform="translate(408.920,82.472)"><circle r="0.0" /></g><g id="node-38" transform="translate(408.920,64.890)"><circle r="0.0" /></g><g id="node-39" transform="translate(373.028,319.834)"><circle r="13.5" /></g><g id="node-40" transform="translate(373.028,724.229)"><circle r="13.5" /></g><g id="node-41" transform="translate(373.028,601.153)"><circle r="13.5" /></g><g id="node-42" transform="translate(337.136,306.648)"><circle r="13.5" /></g><g id="node-43" transform="translate(337.136,711.042)"><circle r="13.5" /></g><g id="node-44" transform="translate(373.028,653.900)"><circle r="13.5" /></g><g id="node-45" transform="translate(337.136,587.966)"><circle r="13.5" /></g><g id="node-46" transform="translate(373.028,460.493)"><circle r="13.5" /></g><g id="node-47" transform="translate(301.244,291.263)"><circle r="13.5" /></g><g id="node-48" transform="translate(373.028,196.758)"><circle r="13.5" /></g><g id="node-49" transform="translate(301.244,695.658)"><circle r="13.5" /></g><g id="node-50" transform="translate(337.136,640.713)"><circle r="13.5" /></g><g id="node-51" transform="translate(301.244,572.581)"><circle r="13.5" /></g><g id="node-52" transform="translate(373.028,530.823)"><circle r="13.5" /></g><g id="node-53" transform="translate(337.136,447.307)"><circle r="13.5" /></g><g id="node-54" transform="translate(265.352,274.780)"><circle r="13.5" /></g><g id="node-55" transform="translate(373.028,231.922)"><circle r="13.5" /></g><g id="node-56" transform="translate(337.136,183.571)"><circle r="13.5" /></g><g id="node-57" transform="translate(265.352,668.185)"><circle r="13.5" /></g><g id="node-58" transform="translate(265.352,551.702)"><circle r="13.5" /></g><g id="node-59" transform="translate(301.244,431.922)"><circle r="13.5" /></g><g id="node-60" transform="translate(373.028,390.164)"><circle r="13.5" /></g><g id="node-61" transform="translate(229.460,253.351)"><circle r="13.5" /></g><g id="node-62" transform="translate(301.244,168.186)"><circle r="13.5" /></g><g id="node-63" transform="translate(229.460,609.944)"><circle r="13.5" /></g><g id="node-64" transform="translate(373.028,495.658)"><circle r="13.5" /></g><g id="node-65" transform="translate(265.352,411.043)"><circle r="13.5" /></g><g id="node-66" transform="translate(373.028,354.999)"><circle r="13.5" /></g><g id="node-67" transform="translate(193.568,210.769)"><circle r="13.5" /></g><g id="node-68" transform="translate(373.028,108.846)"><circle r="13.5" /></g><g id="node-69" transform="translate(193.568,552.801)"><circle r="13.5" /></g><g id="node-70" transform="translate(229.460,383.021)"><circle r="13.5" /></g><g id="node-71" transform="translate(157.676,172.994)"><circle r="13.5" /></g><g id="node-72" transform="translate(337.136,95.659)"><circle r="13.5" /></g><g id="node-73" transform="translate(157.676,467.911)"><circle r="13.5" /></g><g id="node-74" transform="translate(121.784,134.326)"><circle r="13.5" /></g><g id="node-75" transform="translate(85.892,301.119)"><circle r="13.5" /></g><g id="node-76" transform="translate(50.000,183.004)"><circle r="0.0" /></g></g><g class="toytree-NodeLabels" style="fill:rgb(14.9%,14.9%,14.9%);fill-opacity:1.0;font-size:15px;stroke:none"><g transform="translate(364.69,323.67)"><text>83</text></g><g transform="translate(364.69,728.06)"><text>65</text></g><g transform="translate(364.69,604.99)"><text>66</text></g><g transform="translate(328.80,310.48)"><text>51</text></g><g transform="translate(328.80,714.87)"><text>84</text></g><g transform="translate(364.69,657.73)"><text>79</text></g><g transform="translate(328.80,591.80)"><text>95</text></g><g transform="translate(364.69,464.33)"><text>51</text></g><g transform="translate(292.90,295.10)"><text>43</text></g><g transform="translate(364.69,200.59)"><text>88</text></g><g transform="translate(292.90,699.49)"><text>46</text></g><g transform="translate(328.80,644.55)"><text>85</text></g><g transform="translate(292.90,576.41)"><text>47</text></g><g transform="translate(364.69,534.66)"><text>76</text></g><g transform="translate(328.80,451.14)"><text>47</text></g><g transform="translate(257.01,278.61)"><text>41</text></g><g transform="translate(364.69,235.75)"><text>82</text></g><g transform="translate(328.80,187.40)"><text>64</text></g><g transform="translate(257.01,672.02)"><text>96</text></g><g transform="translate(257.01,555.53)"><text>39</text></g><g transform="translate(292.90,435.75)"><text>50</text></g><g transform="translate(364.69,394.00)"><text>56</text></g><g transform="translate(221.12,257.18)"><text>81</text></g><g transform="translate(292.90,172.02)"><text>53</text></g><g transform="translate(221.12,613.78)"><text>71</text></g><g transform="translate(364.69,499.49)"><text>60</text></g><g transform="translate(257.01,414.88)"><text>60</text></g><g transform="translate(364.69,358.83)"><text>95</text></g><g transform="translate(185.23,214.60)"><text>85</text></g><g transform="translate(364.69,112.68)"><text>55</text></g><g transform="translate(185.23,556.63)"><text>61</text></g><g transform="translate(221.12,386.85)"><text>94</text></g><g transform="translate(149.34,176.83)"><text>50</text></g><g transform="translate(328.80,99.49)"><text>93</text></g><g transform="translate(149.34,471.74)"><text>42</text></g><g transform="translate(113.44,138.16)"><text>65</text></g><g transform="translate(73.38,304.95)"><text>100</text></g></g><g class="toytree-TipLabels" style="fill:rgb(14.9%,14.9%,14.9%);fill-opacity:1.0;font-family:helvetica;font-size:16px;font-weight:normal;stroke:none;white-space:pre"><g transform="translate(408.92,733.02)rotate(0)"><text style="fill:rgb(100%,0%,0%);fill-opacity:1.0" x="15.00" y="4.09">viridis</text></g><g transform="translate(408.92,715.44)rotate(0)"><text style="fill:rgb(100%,0%,0%);fill-opacity:1.0" x="15.00" y="4.09">deflexus</text></g><g transform="translate(408.92,697.86)rotate(0)"><text style="fill:rgb(100%,0%,0%);fill-opacity:1.0" x="15.00" y="4.09">muricatus</text></g><g transform="translate(408.92,680.27)rotate(0)"><text style="fill:rgb(100%,0%,0%);fill-opacity:1.0" x="15.00" y="4.09">standleyanus</text></g><g transform="translate(408.92,662.69)rotate(0)"><text style="fill:rgb(50.2%,0%,50.2%);fill-opacity:1.0" x="15.00" y="4.09">tricolor</text></g><g transform="translate(408.92,645.11)rotate(0)"><text style="fill:rgb(50.2%,0%,50.2%);fill-opacity:1.0" x="15.00" y="4.09">graecizans</text></g><g transform="translate(408.92,627.53)rotate(0)"><text style="fill:rgb(50.2%,0%,50.2%);fill-opacity:1.0" x="15.00" y="4.09">blitum</text></g><g transform="translate(408.92,609.94)rotate(0)"><text style="fill:rgb(0%,50.2%,0%);fill-opacity:1.0" x="15.00" y="4.09">albus</text></g><g transform="translate(408.92,592.36)rotate(0)"><text style="fill:rgb(0%,50.2%,0%);fill-opacity:1.0" x="15.00" y="4.09">californicus</text></g><g transform="translate(408.92,574.78)rotate(0)"><text style="fill:rgb(0%,50.2%,0%);fill-opacity:1.0" x="15.00" y="4.09">blitoides</text></g><g transform="translate(408.92,557.20)rotate(0)"><text style="fill:rgb(0%,50.2%,0%);fill-opacity:1.0" x="15.00" y="4.09">torreyi</text></g><g transform="translate(408.92,539.61)rotate(0)"><text style="fill:rgb(0%,50.2%,0%);fill-opacity:1.0" x="15.00" y="4.09">crassipes</text></g><g transform="translate(408.92,522.03)rotate(0)"><text style="fill:rgb(0%,50.2%,0%);fill-opacity:1.0" x="15.00" y="4.09">tamaulipensis</text></g><g transform="translate(408.92,504.45)rotate(0)"><text style="fill:rgb(0%,50.2%,0%);fill-opacity:1.0" x="15.00" y="4.09">fimbriatus</text></g><g transform="translate(408.92,486.87)rotate(0)"><text style="fill:rgb(0%,50.2%,0%);fill-opacity:1.0" x="15.00" y="4.09">tucsonensis</text></g><g transform="translate(408.92,469.28)rotate(0)"><text style="fill:rgb(0%,0%,100%);fill-opacity:1.0" x="15.00" y="4.09">greggii</text></g><g transform="translate(408.92,451.70)rotate(0)"><text style="fill:rgb(0%,0%,100%);fill-opacity:1.0" x="15.00" y="4.09">arenicola</text></g><g transform="translate(408.92,434.12)rotate(0)"><text style="fill:rgb(0%,0%,100%);fill-opacity:1.0" x="15.00" y="4.09">acanthochiton</text></g><g transform="translate(408.92,416.54)rotate(0)"><text style="fill:rgb(0%,0%,100%);fill-opacity:1.0" x="15.00" y="4.09">pumilus</text></g><g transform="translate(408.92,398.96)rotate(0)"><text style="fill:rgb(0%,0%,100%);fill-opacity:1.0" x="15.00" y="4.09">tuberculatus</text></g><g transform="translate(408.92,381.37)rotate(0)"><text style="fill:rgb(0%,0%,100%);fill-opacity:1.0" x="15.00" y="4.09">floridanus</text></g><g transform="translate(408.92,363.79)rotate(0)"><text style="fill:rgb(0%,0%,100%);fill-opacity:1.0" x="15.00" y="4.09">australis</text></g><g transform="translate(408.92,346.21)rotate(0)"><text style="fill:rgb(0%,0%,100%);fill-opacity:1.0" x="15.00" y="4.09">cannabinus</text></g><g transform="translate(408.92,328.63)rotate(0)"><text style="fill:rgb(100%,64.7%,0%);fill-opacity:1.0" x="15.00" y="4.09">quitensis</text></g><g transform="translate(408.92,311.04)rotate(0)"><text style="fill:rgb(100%,64.7%,0%);fill-opacity:1.0" x="15.00" y="4.09">caudatus</text></g><g transform="translate(408.92,293.46)rotate(0)"><text style="fill:rgb(100%,64.7%,0%);fill-opacity:1.0" x="15.00" y="4.09">hybridus1</text></g><g transform="translate(408.92,275.88)rotate(0)"><text style="fill:rgb(100%,64.7%,0%);fill-opacity:1.0" x="15.00" y="4.09">hypochondriacus</text></g><g transform="translate(408.92,258.30)rotate(0)"><text style="fill:rgb(100%,64.7%,0%);fill-opacity:1.0" x="15.00" y="4.09">hybridus3</text></g><g transform="translate(408.92,240.71)rotate(0)"><text style="fill:rgb(100%,64.7%,0%);fill-opacity:1.0" x="15.00" y="4.09">cruentus</text></g><g transform="translate(408.92,223.13)rotate(0)"><text style="fill:rgb(100%,64.7%,0%);fill-opacity:1.0" x="15.00" y="4.09">hybridus2</text></g><g transform="translate(408.92,205.55)rotate(0)"><text style="fill:rgb(100%,64.7%,0%);fill-opacity:1.0" x="15.00" y="4.09">wrightii</text></g><g transform="translate(408.92,187.97)rotate(0)"><text style="fill:rgb(100%,64.7%,0%);fill-opacity:1.0" x="15.00" y="4.09">retroflexus</text></g><g transform="translate(408.92,170.38)rotate(0)"><text style="fill:rgb(100%,64.7%,0%);fill-opacity:1.0" x="15.00" y="4.09">powellii</text></g><g transform="translate(408.92,152.80)rotate(0)"><text style="fill:rgb(100%,64.7%,0%);fill-opacity:1.0" x="15.00" y="4.09">acutilobus</text></g><g transform="translate(408.92,135.22)rotate(0)"><text style="fill:rgb(100%,64.7%,0%);fill-opacity:1.0" x="15.00" y="4.09">dubius</text></g><g transform="translate(408.92,117.64)rotate(0)"><text style="fill:rgb(100%,64.7%,0%);fill-opacity:1.0" x="15.00" y="4.09">watsonii</text></g><g transform="translate(408.92,100.05)rotate(0)"><text style="fill:rgb(100%,64.7%,0%);fill-opacity:1.0" x="15.00" y="4.09">palmeri</text></g><g transform="translate(408.92,82.47)rotate(0)"><text style="fill:rgb(100%,64.7%,0%);fill-opacity:1.0" x="15.00" y="4.09">spinosus</text></g><g transform="translate(408.92,64.89)rotate(0)"><text style="fill:rgb(0%,0%,0%);fill-opacity:1.0" x="15.00" y="4.09">beet</text></g></g></g></g></g></svg>