<svg class="toyplot-canvas-Canvas" height="800.0px" id="t43dc09b430fe42c4bcd06bd2c5391d14" preserveAspectRatio="xMidYMid meet" style="background-color:transparent;border-color:#292724;border-style:none;border-width:1.0;fill:rgb(16.1%,15.3%,14.1%);fill-opacity:1.0;font-family:Helvetica;font-size:12px;opacity:1.0;stroke:rgb(16.1%,15.3%,14.1%);stroke-opacity:1.0;stroke-width:1.0" viewBox="0 0 600.0 800.0" width="600.0px" xmlns="http://www.w3.org/2000/svg" xmlns:toyplot="http://www.sandia.gov/toyplot" xmlns:xlink="http://www.w3.org/1999/xlink"><g class="toyplot-coordinates-Cartesian" id="t5d22fafea3994deea6a7576f657c47bc"><clipPath id="tc8661eabfd354e0ebc45274e7dc4eab3"><rect height="740.0" width="540.0" x="30.0" y="30.0" /></clipPath><g clip-path="url(#tc8661eabfd354e0ebc45274e7dc4eab3)"><g class="toytree-mark-Toytree" id="te1ad4a0ff5f54ec382e6eb3a83ba77de"><g class="toytree-Edges" style="fill:none;stroke:rgb(14.9%,14.9%,14.9%);stroke-linecap:round;stroke-opacity:1;stroke-width:2"><path d="M 50.0 111.5 L 50.0 158.0 L 73.9 158.0" id="76,75" /><path d="M 73.9 158.0 L 73.9 91.3 L 385.0 91.3" id="75,74" /><path d="M 73.9 158.0 L 73.9 224.8 L 97.9 224.8" id="75,73" /><path d="M 97.9 224.8 L 97.9 133.0 L 337.1 133.0" id="73,72" /><path d="M 97.9 224.8 L 97.9 316.5 L 121.8 316.5" id="73,71" /><path d="M 337.1 133.0 L 337.1 148.4 L 361.1 148.4" id="72,70" /><path d="M 121.8 316.5 L 121.8 218.5 L 265.4 218.5" id="71,69" /><path d="M 121.8 316.5 L 121.8 414.6 L 145.7 414.6" id="71,68" /><path d="M 361.1 148.4 L 361.1 161.6 L 385.0 161.6" id="70,67" /><path d="M 265.4 218.5 L 265.4 196.8 L 385.0 196.8" id="69,66" /><path d="M 265.4 218.5 L 265.4 240.2 L 289.3 240.2" id="69,65" /><path d="M 145.7 414.6 L 145.7 349.0 L 289.3 349.0" id="68,64" /><path d="M 145.7 414.6 L 145.7 480.2 L 169.6 480.2" id="68,63" /><path d="M 289.3 240.2 L 289.3 257.2 L 313.2 257.2" id="65,62" /><path d="M 289.3 349.0 L 289.3 369.3 L 313.2 369.3" id="64,61" /><path d="M 169.6 480.2 L 169.6 508.7 L 193.6 508.7" id="63,60" /><path d="M 313.2 257.2 L 313.2 273.7 L 337.1 273.7" id="62,59" /><path d="M 313.2 369.3 L 313.2 392.4 L 337.1 392.4" id="61,58" /><path d="M 193.6 508.7 L 193.6 548.1 L 217.5 548.1" id="60,57" /><path d="M 337.1 273.7 L 337.1 289.1 L 361.1 289.1" id="59,56" /><path d="M 337.1 392.4 L 337.1 372.6 L 385.0 372.6" id="58,55" /><path d="M 337.1 392.4 L 337.1 412.1 L 361.1 412.1" id="58,54" /><path d="M 217.5 548.1 L 217.5 502.3 L 337.1 502.3" id="57,53" /><path d="M 217.5 548.1 L 217.5 593.9 L 241.4 593.9" id="57,52" /><path d="M 361.1 289.1 L 361.1 302.3 L 385.0 302.3" id="56,51" /><path d="M 361.1 412.1 L 361.1 425.3 L 385.0 425.3" id="54,50" /><path d="M 337.1 502.3 L 337.1 517.6 L 361.1 517.6" id="53,49" /><path d="M 241.4 593.9 L 241.4 566.0 L 385.0 566.0" id="52,48" /><path d="M 241.4 593.9 L 241.4 621.8 L 265.4 621.8" id="52,47" /><path d="M 361.1 517.6 L 361.1 530.8 L 385.0 530.8" id="49,46" /><path d="M 265.4 621.8 L 265.4 651.2 L 289.3 651.2" id="47,45" /><path d="M 289.3 651.2 L 289.3 623.1 L 361.1 623.1" id="45,44" /><path d="M 289.3 651.2 L 289.3 679.2 L 313.2 679.2" id="45,43" /><path d="M 361.1 623.1 L 361.1 636.3 L 385.0 636.3" id="44,42" /><path d="M 313.2 679.2 L 313.2 695.7 L 337.1 695.7" id="43,41" /><path d="M 337.1 695.7 L 337.1 711.0 L 361.1 711.0" id="41,40" /><path d="M 361.1 711.0 L 361.1 724.2 L 385.0 724.2" id="40,39" /><path d="M 50.0 111.5 L 50.0 64.9 L 408.9 64.9" id="76,38" /><path d="M 385.0 91.3 L 385.0 82.5 L 408.9 82.5" id="74,37" /><path d="M 385.0 91.3 L 385.0 100.1 L 408.9 100.1" id="74,36" /><path d="M 337.1 133.0 L 337.1 117.6 L 408.9 117.6" id="72,35" /><path d="M 361.1 148.4 L 361.1 135.2 L 408.9 135.2" id="70,34" /><path d="M 385.0 161.6 L 385.0 152.8 L 408.9 152.8" id="67,33" /><path d="M 385.0 161.6 L 385.0 170.4 L 408.9 170.4" id="67,32" /><path d="M 385.0 196.8 L 385.0 188.0 L 408.9 188.0" id="66,31" /><path d="M 385.0 196.8 L 385.0 205.5 L 408.9 205.5" id="66,30" /><path d="M 289.3 240.2 L 289.3 223.1 L 408.9 223.1" id="65,29" /><path d="M 313.2 257.2 L 313.2 240.7 L 408.9 240.7" id="62,28" /><path d="M 337.1 273.7 L 337.1 258.3 L 408.9 258.3" id="59,27" /><path d="M 361.1 289.1 L 361.1 275.9 L 408.9 275.9" id="56,26" /><path d="M 385.0 302.3 L 385.0 293.5 L 408.9 293.5" id="51,25" /><path d="M 385.0 302.3 L 385.0 311.0 L 408.9 311.0" id="51,24" /><path d="M 289.3 349.0 L 289.3 328.6 L 408.9 328.6" id="64,23" /><path d="M 313.2 369.3 L 313.2 346.2 L 408.9 346.2" id="61,22" /><path d="M 385.0 372.6 L 385.0 363.8 L 408.9 363.8" id="55,21" /><path d="M 385.0 372.6 L 385.0 381.4 L 408.9 381.4" id="55,20" /><path d="M 361.1 412.1 L 361.1 399.0 L 408.9 399.0" id="54,19" /><path d="M 385.0 425.3 L 385.0 416.5 L 408.9 416.5" id="50,18" /><path d="M 385.0 425.3 L 385.0 434.1 L 408.9 434.1" id="50,17" /><path d="M 169.6 480.2 L 169.6 451.7 L 408.9 451.7" id="63,16" /><path d="M 193.6 508.7 L 193.6 469.3 L 408.9 469.3" id="60,15" /><path d="M 337.1 502.3 L 337.1 486.9 L 408.9 486.9" id="53,14" /><path d="M 361.1 517.6 L 361.1 504.4 L 408.9 504.4" id="49,13" /><path d="M 385.0 530.8 L 385.0 522.0 L 408.9 522.0" id="46,12" /><path d="M 385.0 530.8 L 385.0 539.6 L 408.9 539.6" id="46,11" /><path d="M 385.0 566.0 L 385.0 557.2 L 408.9 557.2" id="48,10" /><path d="M 385.0 566.0 L 385.0 574.8 L 408.9 574.8" id="48,9" /><path d="M 265.4 621.8 L 265.4 592.4 L 408.9 592.4" id="47,8" /><path d="M 361.1 623.1 L 361.1 609.9 L 408.9 609.9" id="44,7" /><path d="M 385.0 636.3 L 385.0 627.5 L 408.9 627.5" id="42,6" /><path d="M 385.0 636.3 L 385.0 645.1 L 408.9 645.1" id="42,5" /><path d="M 313.2 679.2 L 313.2 662.7 L 408.9 662.7" id="43,4" /><path d="M 337.1 695.7 L 337.1 680.3 L 408.9 680.3" id="41,3" /><path d="M 361.1 711.0 L 361.1 697.9 L 408.9 697.9" id="40,2" /><path d="M 385.0 724.2 L 385.0 715.4 L 408.9 715.4" id="39,1" /><path d="M 385.0 724.2 L 385.0 733.0 L 408.9 733.0" id="39,0" /></g><g class="toytree-AlignEdges" style="stroke:rgb(66.3%,66.3%,66.3%);stroke-dasharray:2, 4;stroke-linecap:round;stroke-opacity:1.0;stroke-width:2"><path d="M 408.9 733.0 L 408.9 733.0" /><path d="M 408.9 715.4 L 408.9 715.4" /><path d="M 408.9 697.9 L 408.9 697.9" /><path d="M 408.9 680.3 L 408.9 680.3" /><path d="M 408.9 662.7 L 408.9 662.7" /><path d="M 408.9 645.1 L 408.9 645.1" /><path d="M 408.9 627.5 L 408.9 627.5" /><path d="M 408.9 609.9 L 408.9 609.9" /><path d="M 408.9 592.4 L 408.9 592.4" /><path d="M 408.9 574.8 L 408.9 574.8" /><path d="M 408.9 557.2 L 408.9 557.2" /><path d="M 408.9 539.6 L 408.9 539.6" /><path d="M 408.9 522.0 L 408.9 522.0" /><path d="M 408.9 504.4 L 408.9 504.4" /><path d="M 408.9 486.9 L 408.9 486.9" /><path d="M 408.9 469.3 L 408.9 469.3" /><path d="M 408.9 451.7 L 408.9 451.7" /><path d="M 408.9 434.1 L 408.9 434.1" /><path d="M 408.9 416.5 L 408.9 416.5" /><path d="M 408.9 399.0 L 408.9 399.0" /><path d="M 408.9 381.4 L 408.9 381.4" /><path d="M 408.9 363.8 L 408.9 363.8" /><path d="M 408.9 346.2 L 408.9 346.2" /><path d="M 408.9 328.6 L 408.9 328.6" /><path d="M 408.9 311.0 L 408.9 311.0" /><path d="M 408.9 293.5 L 408.9 293.5" /><path d="M 408.9 275.9 L 408.9 275.9" /><path d="M 408.9 258.3 L 408.9 258.3" /><path d="M 408.9 240.7 L 408.9 240.7" /><path d="M 408.9 223.1 L 408.9 223.1" /><path d="M 408.9 205.5 L 408.9 205.5" /><path d="M 408.9 188.0 L 408.9 188.0" /><path d="M 408.9 170.4 L 408.9 170.4" /><path d="M 408.9 152.8 L 408.9 152.8" /><path d="M 408.9 135.2 L 408.9 135.2" /><path d="M 408.9 117.6 L 408.9 117.6" /><path d="M 408.9 100.1 L 408.9 100.1" /><path d="M 408.9 82.5 L 408.9 82.5" /><path d="M 408.9 64.9 L 408.9 64.9" /></g><g class="toytree-Nodes" style="fill:rgb(100%,100%,100%);fill-opacity:1.0;stroke:rgb(0%,0%,0%);stroke-opacity:1.0;stroke-width:1"><g id="node-0" transform="translate(408.920,733.020)"><circle r="0.0" /></g><g id="node-1" transform="translate(408.920,715.438)"><circle r="0.0" /></g><g id="node-2" transform="translate(408.920,697.856)"><circle r="0.0" /></g><g id="node-3" transform="translate(408.920,680.273)"><circle r="0.0" /></g><g id="node-4" transform="translate(408.920,662.691)"><circle r="0.0" /></g><g id="node-5" transform="translate(408.920,645.109)"><circle r="0.0" /></g><g id="node-6" transform="translate(408.920,627.526)"><circle r="0.0" /></g><g id="node-7" transform="translate(408.920,609.944)"><circle r="0.0" /></g><g id="node-8" transform="translate(408.920,592.361)"><circle r="0.0" /></g><g id="node-9" transform="translate(408.920,574.779)"><circle r="0.0" /></g><g id="node-10" transform="translate(408.920,557.197)"><circle r="0.0" /></g><g id="node-11" transform="translate(408.920,539.614)"><circle r="0.0" /></g><g id="node-12" transform="translate(408.920,522.032)"><circle r="0.0" /></g><g id="node-13" transform="translate(408.920,504.449)"><circle r="0.0" /></g><g id="node-14" transform="translate(408.920,486.867)"><circle r="0.0" /></g><g id="node-15" transform="translate(408.920,469.285)"><circle r="0.0" /></g><g id="node-16" transform="translate(408.920,451.702)"><circle r="0.0" /></g><g id="node-17" transform="translate(408.920,434.120)"><circle r="0.0" /></g><g id="node-18" transform="translate(408.920,416.537)"><circle r="0.0" /></g><g id="node-19" transform="translate(408.920,398.955)"><circle r="0.0" /></g><g id="node-20" transform="translate(408.920,381.373)"><circle r="0.0" /></g><g id="node-21" transform="translate(408.920,363.790)"><circle r="0.0" /></g><g id="node-22" transform="translate(408.920,346.208)"><circle r="0.0" /></g><g id="node-23" transform="translate(408.920,328.626)"><circle r="0.0" /></g><g id="node-24" transform="translate(408.920,311.043)"><circle r="0.0" /></g><g id="node-25" transform="translate(408.920,293.461)"><circle r="0.0" /></g><g id="node-26" transform="translate(408.920,275.878)"><circle r="0.0" /></g><g id="node-27" transform="translate(408.920,258.296)"><circle r="0.0" /></g><g id="node-28" transform="translate(408.920,240.714)"><circle r="0.0" /></g><g id="node-29" transform="translate(408.920,223.131)"><circle r="0.0" /></g><g id="node-30" transform="translate(408.920,205.549)"><circle r="0.0" /></g><g id="node-31" transform="translate(408.920,187.966)"><circle r="0.0" /></g><g id="node-32" transform="translate(408.920,170.384)"><circle r="0.0" /></g><g id="node-33" transform="translate(408.920,152.802)"><circle r="0.0" /></g><g id="node-34" transform="translate(408.920,135.219)"><circle r="0.0" /></g><g id="node-35" transform="translate(408.920,117.637)"><circle r="0.0" /></g><g id="node-36" transform="translate(408.920,100.055)"><circle r="0.0" /></g><g id="node-37" transform="translate(408.920,82.472)"><circle r="0.0" /></g><g id="node-38" transform="translate(408.920,64.890)"><circle r="0.0" /></g><g id="node-39" transform="translate(384.992,724.229)"><circle r="13.5" /></g><g id="node-40" transform="translate(361.064,711.042)"><circle r="13.5" /></g><g id="node-41" transform="translate(337.136,695.658)"><circle r="13.5" /></g><g id="node-42" transform="translate(384.992,636.317)"><circle r="13.5" /></g><g id="node-43" transform="translate(313.208,679.174)"><circle r="13.5" /></g><g id="node-44" transform="translate(361.064,623.131)"><circle r="13.5" /></g><g id="node-45" transform="translate(289.280,651.152)"><circle r="13.5" /></g><g id="node-46" transform="translate(384.992,530.823)"><circle r="13.5" /></g><g id="node-47" transform="translate(265.352,621.757)"><circle r="13.5" /></g><g id="node-48" transform="translate(384.992,565.988)"><circle r="13.5" /></g><g id="node-49" transform="translate(361.064,517.636)"><circle r="13.5" /></g><g id="node-50" transform="translate(384.992,425.329)"><circle r="13.5" /></g><g id="node-51" transform="translate(384.992,302.252)"><circle r="13.5" /></g><g id="node-52" transform="translate(241.424,593.872)"><circle r="13.5" /></g><g id="node-53" transform="translate(337.136,502.252)"><circle r="13.5" /></g><g id="node-54" transform="translate(361.064,412.142)"><circle r="13.5" /></g><g id="node-55" transform="translate(384.992,372.582)"><circle r="13.5" /></g><g id="node-56" transform="translate(361.064,289.065)"><circle r="13.5" /></g><g id="node-57" transform="translate(217.496,548.062)"><circle r="13.5" /></g><g id="node-58" transform="translate(337.136,392.362)"><circle r="13.5" /></g><g id="node-59" transform="translate(337.136,273.681)"><circle r="13.5" /></g><g id="node-60" transform="translate(193.568,508.673)"><circle r="13.5" /></g><g id="node-61" transform="translate(313.208,369.285)"><circle r="13.5" /></g><g id="node-62" transform="translate(313.208,257.197)"><circle r="13.5" /></g><g id="node-63" transform="translate(169.640,480.188)"><circle r="13.5" /></g><g id="node-64" transform="translate(289.280,348.955)"><circle r="13.5" /></g><g id="node-65" transform="translate(289.280,240.164)"><circle r="13.5" /></g><g id="node-66" transform="translate(384.992,196.758)"><circle r="13.5" /></g><g id="node-67" transform="translate(384.992,161.593)"><circle r="13.5" /></g><g id="node-68" transform="translate(145.712,414.571)"><circle r="13.5" /></g><g id="node-69" transform="translate(265.352,218.461)"><circle r="13.5" /></g><g id="node-70" transform="translate(361.064,148.406)"><circle r="13.5" /></g><g id="node-71" transform="translate(121.784,316.516)"><circle r="13.5" /></g><g id="node-72" transform="translate(337.136,133.022)"><circle r="13.5" /></g><g id="node-73" transform="translate(97.856,224.769)"><circle r="13.5" /></g><g id="node-74" transform="translate(384.992,91.263)"><circle r="13.5" /></g><g id="node-75" transform="translate(73.928,158.016)"><circle r="13.5" /></g><g id="node-76" transform="translate(50.000,111.453)"><circle r="0.0" /></g></g><g class="toytree-NodeLabels" style="fill:rgb(14.9%,14.9%,14.9%);fill-opacity:1.0;font-size:15px;stroke:none"><g transform="translate(376.65,728.06)"><text>42</text></g><g transform="translate(352.72,714.87)"><text>49</text></g><g transform="translate(328.80,699.49)"><text>45</text></g><g transform="translate(376.65,640.15)"><text>42</text></g><g transform="translate(304.87,683.01)"><text>34</text></g><g transform="translate(352.72,626.96)"><text>49</text></g><g transform="translate(280.94,654.98)"><text>46</text></g><g transform="translate(376.65,534.66)"><text>40</text></g><g transform="translate(257.01,625.59)"><text>51</text></g><g transform="translate(376.65,569.82)"><text>80</text></g><g transform="translate(352.72,521.47)"><text>63</text></g><g transform="translate(376.65,429.16)"><text>77</text></g><g transform="translate(376.65,306.08)"><text>97</text></g><g transform="translate(233.08,597.70)"><text>84</text></g><g transform="translate(328.80,506.08)"><text>53</text></g><g transform="translate(352.72,415.97)"><text>49</text></g><g transform="translate(376.65,376.41)"><text>66</text></g><g transform="translate(352.72,292.90)"><text>39</text></g><g transform="translate(209.16,551.89)"><text>80</text></g><g transform="translate(328.80,396.19)"><text>38</text></g><g transform="translate(328.80,277.51)"><text>54</text></g><g transform="translate(185.23,512.51)"><text>40</text></g><g transform="translate(304.87,373.12)"><text>48</text></g><g transform="translate(304.87,261.03)"><text>41</text></g><g transform="translate(161.30,484.02)"><text>59</text></g><g transform="translate(280.94,352.79)"><text>89</text></g><g transform="translate(280.94,244.00)"><text>55</text></g><g transform="translate(376.65,200.59)"><text>96</text></g><g transform="translate(376.65,165.43)"><text>40</text></g><g transform="translate(137.37,418.40)"><text>50</text></g><g transform="translate(257.01,222.29)"><text>72</text></g><g transform="translate(352.72,152.24)"><text>80</text></g><g transform="translate(113.44,320.35)"><text>39</text></g><g transform="translate(328.80,136.85)"><text>56</text></g><g transform="translate(89.52,228.60)"><text>51</text></g><g transform="translate(376.65,95.10)"><text>64</text></g><g transform="translate(61.42,161.85)"><text>100</text></g></g><g class="toytree-TipLabels" style="fill:rgb(14.9%,14.9%,14.9%);fill-opacity:1.0;font-family:helvetica;font-size:16px;font-weight:normal;stroke:none;white-space:pre"><g transform="translate(408.92,733.02)rotate(0)"><text style="fill:rgb(100%,64.7%,0%);fill-opacity:1.0" x="15.00" y="4.09">hybridus1</text></g><g transform="translate(408.92,715.44)rotate(0)"><text style="fill:rgb(100%,64.7%,0%);fill-opacity:1.0" x="15.00" y="4.09">hybridus3</text></g><g transform="translate(408.92,697.86)rotate(0)"><text style="fill:rgb(100%,64.7%,0%);fill-opacity:1.0" x="15.00" y="4.09">quitensis</text></g><g transform="translate(408.92,680.27)rotate(0)"><text style="fill:rgb(100%,64.7%,0%);fill-opacity:1.0" x="15.00" y="4.09">caudatus</text></g><g transform="translate(408.92,662.69)rotate(0)"><text style="fill:rgb(100%,64.7%,0%);fill-opacity:1.0" x="15.00" y="4.09">acutilobus</text></g><g transform="translate(408.92,645.11)rotate(0)"><text style="fill:rgb(100%,64.7%,0%);fill-opacity:1.0" x="15.00" y="4.09">cruentus</text></g><g transform="translate(408.92,627.53)rotate(0)"><text style="fill:rgb(100%,64.7%,0%);fill-opacity:1.0" x="15.00" y="4.09">hybridus2</text></g><g transform="translate(408.92,609.94)rotate(0)"><text style="fill:rgb(100%,64.7%,0%);fill-opacity:1.0" x="15.00" y="4.09">hypochondriacus</text></g><g transform="translate(408.92,592.36)rotate(0)"><text style="fill:rgb(100%,64.7%,0%);fill-opacity:1.0" x="15.00" y="4.09">powellii</text></g><g transform="translate(408.92,574.78)rotate(0)"><text style="fill:rgb(100%,64.7%,0%);fill-opacity:1.0" x="15.00" y="4.09">wrightii</text></g><g transform="translate(408.92,557.20)rotate(0)"><text style="fill:rgb(100%,64.7%,0%);fill-opacity:1.0" x="15.00" y="4.09">retroflexus</text></g><g transform="translate(408.92,539.61)rotate(0)"><text style="fill:rgb(100%,64.7%,0%);fill-opacity:1.0" x="15.00" y="4.09">watsonii</text></g><g transform="translate(408.92,522.03)rotate(0)"><text style="fill:rgb(100%,64.7%,0%);fill-opacity:1.0" x="15.00" y="4.09">palmeri</text></g><g transform="translate(408.92,504.45)rotate(0)"><text style="fill:rgb(100%,64.7%,0%);fill-opacity:1.0" x="15.00" y="4.09">spinosus</text></g><g transform="translate(408.92,486.87)rotate(0)"><text style="fill:rgb(100%,64.7%,0%);fill-opacity:1.0" x="15.00" y="4.09">dubius</text></g><g transform="translate(408.92,469.28)rotate(0)"><text style="fill:rgb(0%,50.2%,0%);fill-opacity:1.0" x="15.00" y="4.09">tucsonensis</text></g><g transform="translate(408.92,451.70)rotate(0)"><text style="fill:rgb(0%,50.2%,0%);fill-opacity:1.0" x="15.00" y="4.09">fimbriatus</text></g><g transform="translate(408.92,434.12)rotate(0)"><text style="fill:rgb(100%,0%,0%);fill-opacity:1.0" x="15.00" y="4.09">deflexus</text></g><g transform="translate(408.92,416.54)rotate(0)"><text style="fill:rgb(100%,0%,0%);fill-opacity:1.0" x="15.00" y="4.09">viridis</text></g><g transform="translate(408.92,398.96)rotate(0)"><text style="fill:rgb(100%,0%,0%);fill-opacity:1.0" x="15.00" y="4.09">standleyanus</text></g><g transform="translate(408.92,381.37)rotate(0)"><text style="fill:rgb(50.2%,0%,50.2%);fill-opacity:1.0" x="15.00" y="4.09">graecizans</text></g><g transform="translate(408.92,363.79)rotate(0)"><text style="fill:rgb(50.2%,0%,50.2%);fill-opacity:1.0" x="15.00" y="4.09">tricolor</text></g><g transform="translate(408.92,346.21)rotate(0)"><text style="fill:rgb(50.2%,0%,50.2%);fill-opacity:1.0" x="15.00" y="4.09">blitum</text></g><g transform="translate(408.92,328.63)rotate(0)"><text style="fill:rgb(100%,0%,0%);fill-opacity:1.0" x="15.00" y="4.09">muricatus</text></g><g transform="translate(408.92,311.04)rotate(0)"><text style="fill:rgb(0%,0%,100%);fill-opacity:1.0" x="15.00" y="4.09">arenicola</text></g><g transform="translate(408.92,293.46)rotate(0)"><text style="fill:rgb(0%,0%,100%);fill-opacity:1.0" x="15.00" y="4.09">greggii</text></g><g transform="translate(408.92,275.88)rotate(0)"><text style="fill:rgb(0%,0%,100%);fill-opacity:1.0" x="15.00" y="4.09">tuberculatus</text></g><g transform="translate(408.92,258.30)rotate(0)"><text style="fill:rgb(0%,0%,100%);fill-opacity:1.0" x="15.00" y="4.09">pumilus</text></g><g transform="translate(408.92,240.71)rotate(0)"><text style="fill:rgb(0%,0%,100%);fill-opacity:1.0" x="15.00" y="4.09">floridanus</text></g><g transform="translate(408.92,223.13)rotate(0)"><text style="fill:rgb(0%,0%,100%);fill-opacity:1.0" x="15.00" y="4.09">acanthochiton</text></g><g transform="translate(408.92,205.55)rotate(0)"><text style="fill:rgb(0%,0%,100%);fill-opacity:1.0" x="15.00" y="4.09">cannabinus</text></g><g transform="translate(408.92,187.97)rotate(0)"><text style="fill:rgb(0%,0%,100%);fill-opacity:1.0" x="15.00" y="4.09">australis</text></g><g transform="translate(408.92,170.38)rotate(0)"><text style="fill:rgb(0%,50.2%,0%);fill-opacity:1.0" x="15.00" y="4.09">californicus</text></g><g transform="translate(408.92,152.80)rotate(0)"><text style="fill:rgb(0%,50.2%,0%);fill-opacity:1.0" x="15.00" y="4.09">albus</text></g><g transform="translate(408.92,135.22)rotate(0)"><text style="fill:rgb(0%,50.2%,0%);fill-opacity:1.0" x="15.00" y="4.09">blitoides</text></g><g transform="translate(408.92,117.64)rotate(0)"><text style="fill:rgb(0%,50.2%,0%);fill-opacity:1.0" x="15.00" y="4.09">torreyi</text></g><g transform="translate(408.92,100.05)rotate(0)"><text style="fill:rgb(0%,50.2%,0%);fill-opacity:1.0" x="15.00" y="4.09">crassipes</text></g><g transform="translate(408.92,82.47)rotate(0)"><text style="fill:rgb(0%,50.2%,0%);fill-opacity:1.0" x="15.00" y="4.09">tamaulipensis</text></g><g transform="translate(408.92,64.89)rotate(0)"><text style="fill:rgb(0%,0%,0%);fill-opacity:1.0" x="15.00" y="4.09">beet</text></g></g></g></g></g></svg>