<svg class="toyplot-canvas-Canvas" height="800.0px" id="t7972205755e741d19176a384e1745d04" preserveAspectRatio="xMidYMid meet" style="background-color:transparent;border-color:#292724;border-style:none;border-width:1.0;fill:rgb(16.1%,15.3%,14.1%);fill-opacity:1.0;font-family:Helvetica;font-size:12px;opacity:1.0;stroke:rgb(16.1%,15.3%,14.1%);stroke-opacity:1.0;stroke-width:1.0" viewBox="0 0 600.0 800.0" width="600.0px" xmlns="http://www.w3.org/2000/svg" xmlns:toyplot="http://www.sandia.gov/toyplot" xmlns:xlink="http://www.w3.org/1999/xlink"><g class="toyplot-coordinates-Cartesian" id="t868039714e984249b47b70aa59a31c67"><clipPath id="t97488ededf5841dbae8ccf4c3ed356e2"><rect height="740.0" width="540.0" x="30.0" y="30.0" /></clipPath><g clip-path="url(#t97488ededf5841dbae8ccf4c3ed356e2)"><g class="toytree-mark-Toytree" id="t76439ca47427437e964494c2d9f4b643"><g class="toytree-Edges" style="fill:none;stroke:rgb(14.9%,14.9%,14.9%);stroke-linecap:round;stroke-opacity:1;stroke-width:2"><path d="M 50.0 164.3 L 50.0 263.6 L 82.6 263.6" id="76,75" /><path d="M 82.6 263.6 L 82.6 119.3 L 245.8 119.3" id="75,74" /><path d="M 82.6 263.6 L 82.6 408.0 L 115.3 408.0" id="75,73" /><path d="M 245.8 119.3 L 245.8 91.3 L 376.3 91.3" id="74,72" /><path d="M 245.8 119.3 L 245.8 147.3 L 278.4 147.3" id="74,71" /><path d="M 115.3 408.0 L 115.3 316.0 L 245.8 316.0" id="73,70" /><path d="M 115.3 408.0 L 115.3 500.0 L 147.9 500.0" id="73,69" /><path d="M 278.4 147.3 L 278.4 126.4 L 376.3 126.4" id="71,68" /><path d="M 278.4 147.3 L 278.4 168.2 L 311.0 168.2" id="71,67" /><path d="M 245.8 316.0 L 245.8 262.7 L 311.0 262.7" id="70,66" /><path d="M 245.8 316.0 L 245.8 369.3 L 278.4 369.3" id="70,65" /><path d="M 147.9 500.0 L 147.9 460.5 L 376.3 460.5" id="69,64" /><path d="M 147.9 500.0 L 147.9 539.5 L 180.5 539.5" id="69,63" /><path d="M 311.0 168.2 L 311.0 183.6 L 343.7 183.6" id="67,62" /><path d="M 311.0 262.7 L 311.0 236.3 L 343.7 236.3" id="66,61" /><path d="M 311.0 262.7 L 311.0 289.1 L 343.7 289.1" id="66,60" /><path d="M 278.4 369.3 L 278.4 341.8 L 343.7 341.8" id="65,59" /><path d="M 278.4 369.3 L 278.4 396.8 L 311.0 396.8" id="65,58" /><path d="M 180.5 539.5 L 180.5 500.1 L 343.7 500.1" id="63,57" /><path d="M 180.5 539.5 L 180.5 578.9 L 213.1 578.9" id="63,56" /><path d="M 343.7 183.6 L 343.7 196.8 L 376.3 196.8" id="62,55" /><path d="M 343.7 236.3 L 343.7 249.5 L 376.3 249.5" id="61,54" /><path d="M 343.7 289.1 L 343.7 302.3 L 376.3 302.3" id="60,53" /><path d="M 343.7 341.8 L 343.7 355.0 L 376.3 355.0" id="59,52" /><path d="M 311.0 396.8 L 311.0 412.1 L 343.7 412.1" id="58,51" /><path d="M 343.7 500.1 L 343.7 513.2 L 376.3 513.2" id="57,50" /><path d="M 213.1 578.9 L 213.1 618.2 L 245.8 618.2" id="56,49" /><path d="M 343.7 412.1 L 343.7 425.3 L 376.3 425.3" id="51,48" /><path d="M 245.8 618.2 L 245.8 572.6 L 311.0 572.6" id="49,47" /><path d="M 245.8 618.2 L 245.8 663.8 L 278.4 663.8" id="49,46" /><path d="M 311.0 572.6 L 311.0 588.0 L 343.7 588.0" id="47,45" /><path d="M 278.4 663.8 L 278.4 636.3 L 376.3 636.3" id="46,44" /><path d="M 278.4 663.8 L 278.4 691.3 L 311.0 691.3" id="46,43" /><path d="M 343.7 588.0 L 343.7 601.2 L 376.3 601.2" id="45,42" /><path d="M 311.0 691.3 L 311.0 671.5 L 376.3 671.5" id="43,41" /><path d="M 311.0 691.3 L 311.0 711.0 L 343.7 711.0" id="43,40" /><path d="M 343.7 711.0 L 343.7 724.2 L 376.3 724.2" id="40,39" /><path d="M 50.0 164.3 L 50.0 64.9 L 408.9 64.9" id="76,38" /><path d="M 376.3 91.3 L 376.3 82.5 L 408.9 82.5" id="72,37" /><path d="M 376.3 91.3 L 376.3 100.1 L 408.9 100.1" id="72,36" /><path d="M 376.3 126.4 L 376.3 117.6 L 408.9 117.6" id="68,35" /><path d="M 376.3 126.4 L 376.3 135.2 L 408.9 135.2" id="68,34" /><path d="M 311.0 168.2 L 311.0 152.8 L 408.9 152.8" id="67,33" /><path d="M 343.7 183.6 L 343.7 170.4 L 408.9 170.4" id="62,32" /><path d="M 376.3 196.8 L 376.3 188.0 L 408.9 188.0" id="55,31" /><path d="M 376.3 196.8 L 376.3 205.5 L 408.9 205.5" id="55,30" /><path d="M 343.7 236.3 L 343.7 223.1 L 408.9 223.1" id="61,29" /><path d="M 376.3 249.5 L 376.3 240.7 L 408.9 240.7" id="54,28" /><path d="M 376.3 249.5 L 376.3 258.3 L 408.9 258.3" id="54,27" /><path d="M 343.7 289.1 L 343.7 275.9 L 408.9 275.9" id="60,26" /><path d="M 376.3 302.3 L 376.3 293.5 L 408.9 293.5" id="53,25" /><path d="M 376.3 302.3 L 376.3 311.0 L 408.9 311.0" id="53,24" /><path d="M 343.7 341.8 L 343.7 328.6 L 408.9 328.6" id="59,23" /><path d="M 376.3 355.0 L 376.3 346.2 L 408.9 346.2" id="52,22" /><path d="M 376.3 355.0 L 376.3 363.8 L 408.9 363.8" id="52,21" /><path d="M 311.0 396.8 L 311.0 381.4 L 408.9 381.4" id="58,20" /><path d="M 343.7 412.1 L 343.7 399.0 L 408.9 399.0" id="51,19" /><path d="M 376.3 425.3 L 376.3 416.5 L 408.9 416.5" id="48,18" /><path d="M 376.3 425.3 L 376.3 434.1 L 408.9 434.1" id="48,17" /><path d="M 376.3 460.5 L 376.3 451.7 L 408.9 451.7" id="64,16" /><path d="M 376.3 460.5 L 376.3 469.3 L 408.9 469.3" id="64,15" /><path d="M 343.7 500.1 L 343.7 486.9 L 408.9 486.9" id="57,14" /><path d="M 376.3 513.2 L 376.3 504.4 L 408.9 504.4" id="50,13" /><path d="M 376.3 513.2 L 376.3 522.0 L 408.9 522.0" id="50,12" /><path d="M 213.1 578.9 L 213.1 539.6 L 408.9 539.6" id="56,11" /><path d="M 311.0 572.6 L 311.0 557.2 L 408.9 557.2" id="47,10" /><path d="M 343.7 588.0 L 343.7 574.8 L 408.9 574.8" id="45,9" /><path d="M 376.3 601.2 L 376.3 592.4 L 408.9 592.4" id="42,8" /><path d="M 376.3 601.2 L 376.3 609.9 L 408.9 609.9" id="42,7" /><path d="M 376.3 636.3 L 376.3 627.5 L 408.9 627.5" id="44,6" /><path d="M 376.3 636.3 L 376.3 645.1 L 408.9 645.1" id="44,5" /><path d="M 376.3 671.5 L 376.3 662.7 L 408.9 662.7" id="41,4" /><path d="M 376.3 671.5 L 376.3 680.3 L 408.9 680.3" id="41,3" /><path d="M 343.7 711.0 L 343.7 697.9 L 408.9 697.9" id="40,2" /><path d="M 376.3 724.2 L 376.3 715.4 L 408.9 715.4" id="39,1" /><path d="M 376.3 724.2 L 376.3 733.0 L 408.9 733.0" id="39,0" /></g><g class="toytree-AlignEdges" style="stroke:rgb(66.3%,66.3%,66.3%);stroke-dasharray:2, 4;stroke-linecap:round;stroke-opacity:1.0;stroke-width:2"><path d="M 408.9 733.0 L 408.9 733.0" /><path d="M 408.9 715.4 L 408.9 715.4" /><path d="M 408.9 697.9 L 408.9 697.9" /><path d="M 408.9 680.3 L 408.9 680.3" /><path d="M 408.9 662.7 L 408.9 662.7" /><path d="M 408.9 645.1 L 408.9 645.1" /><path d="M 408.9 627.5 L 408.9 627.5" /><path d="M 408.9 609.9 L 408.9 609.9" /><path d="M 408.9 592.4 L 408.9 592.4" /><path d="M 408.9 574.8 L 408.9 574.8" /><path d="M 408.9 557.2 L 408.9 557.2" /><path d="M 408.9 539.6 L 408.9 539.6" /><path d="M 408.9 522.0 L 408.9 522.0" /><path d="M 408.9 504.4 L 408.9 504.4" /><path d="M 408.9 486.9 L 408.9 486.9" /><path d="M 408.9 469.3 L 408.9 469.3" /><path d="M 408.9 451.7 L 408.9 451.7" /><path d="M 408.9 434.1 L 408.9 434.1" /><path d="M 408.9 416.5 L 408.9 416.5" /><path d="M 408.9 399.0 L 408.9 399.0" /><path d="M 408.9 381.4 L 408.9 381.4" /><path d="M 408.9 363.8 L 408.9 363.8" /><path d="M 408.9 346.2 L 408.9 346.2" /><path d="M 408.9 328.6 L 408.9 328.6" /><path d="M 408.9 311.0 L 408.9 311.0" /><path d="M 408.9 293.5 L 408.9 293.5" /><path d="M 408.9 275.9 L 408.9 275.9" /><path d="M 408.9 258.3 L 408.9 258.3" /><path d="M 408.9 240.7 L 408.9 240.7" /><path d="M 408.9 223.1 L 408.9 223.1" /><path d="M 408.9 205.5 L 408.9 205.5" /><path d="M 408.9 188.0 L 408.9 188.0" /><path d="M 408.9 170.4 L 408.9 170.4" /><path d="M 408.9 152.8 L 408.9 152.8" /><path d="M 408.9 135.2 L 408.9 135.2" /><path d="M 408.9 117.6 L 408.9 117.6" /><path d="M 408.9 100.1 L 408.9 100.1" /><path d="M 408.9 82.5 L 408.9 82.5" /><path d="M 408.9 64.9 L 408.9 64.9" /></g><g class="toytree-Nodes" style="fill:rgb(100%,100%,100%);fill-opacity:1.0;stroke:rgb(0%,0%,0%);stroke-opacity:1.0;stroke-width:1"><g id="node-0" transform="translate(408.920,733.020)"><circle r="0.0" /></g><g id="node-1" transform="translate(408.920,715.438)"><circle r="0.0" /></g><g id="node-2" transform="translate(408.920,697.856)"><circle r="0.0" /></g><g id="node-3" transform="translate(408.920,680.273)"><circle r="0.0" /></g><g id="node-4" transform="translate(408.920,662.691)"><circle r="0.0" /></g><g id="node-5" transform="translate(408.920,645.109)"><circle r="0.0" /></g><g id="node-6" transform="translate(408.920,627.526)"><circle r="0.0" /></g><g id="node-7" transform="translate(408.920,609.944)"><circle r="0.0" /></g><g id="node-8" transform="translate(408.920,592.361)"><circle r="0.0" /></g><g id="node-9" transform="translate(408.920,574.779)"><circle r="0.0" /></g><g id="node-10" transform="translate(408.920,557.197)"><circle r="0.0" /></g><g id="node-11" transform="translate(408.920,539.614)"><circle r="0.0" /></g><g id="node-12" transform="translate(408.920,522.032)"><circle r="0.0" /></g><g id="node-13" transform="translate(408.920,504.449)"><circle r="0.0" /></g><g id="node-14" transform="translate(408.920,486.867)"><circle r="0.0" /></g><g id="node-15" transform="translate(408.920,469.285)"><circle r="0.0" /></g><g id="node-16" transform="translate(408.920,451.702)"><circle r="0.0" /></g><g id="node-17" transform="translate(408.920,434.120)"><circle r="0.0" /></g><g id="node-18" transform="translate(408.920,416.537)"><circle r="0.0" /></g><g id="node-19" transform="translate(408.920,398.955)"><circle r="0.0" /></g><g id="node-20" transform="translate(408.920,381.373)"><circle r="0.0" /></g><g id="node-21" transform="translate(408.920,363.790)"><circle r="0.0" /></g><g id="node-22" transform="translate(408.920,346.208)"><circle r="0.0" /></g><g id="node-23" transform="translate(408.920,328.626)"><circle r="0.0" /></g><g id="node-24" transform="translate(408.920,311.043)"><circle r="0.0" /></g><g id="node-25" transform="translate(408.920,293.461)"><circle r="0.0" /></g><g id="node-26" transform="translate(408.920,275.878)"><circle r="0.0" /></g><g id="node-27" transform="translate(408.920,258.296)"><circle r="0.0" /></g><g id="node-28" transform="translate(408.920,240.714)"><circle r="0.0" /></g><g id="node-29" transform="translate(408.920,223.131)"><circle r="0.0" /></g><g id="node-30" transform="translate(408.920,205.549)"><circle r="0.0" /></g><g id="node-31" transform="translate(408.920,187.966)"><circle r="0.0" /></g><g id="node-32" transform="translate(408.920,170.384)"><circle r="0.0" /></g><g id="node-33" transform="translate(408.920,152.802)"><circle r="0.0" /></g><g id="node-34" transform="translate(408.920,135.219)"><circle r="0.0" /></g><g id="node-35" transform="translate(408.920,117.637)"><circle r="0.0" /></g><g id="node-36" transform="translate(408.920,100.055)"><circle r="0.0" /></g><g id="node-37" transform="translate(408.920,82.472)"><circle r="0.0" /></g><g id="node-38" transform="translate(408.920,64.890)"><circle r="0.0" /></g><g id="node-39" transform="translate(376.291,724.229)"><circle r="13.5" /></g><g id="node-40" transform="translate(343.662,711.042)"><circle r="13.5" /></g><g id="node-41" transform="translate(376.291,671.482)"><circle r="13.5" /></g><g id="node-42" transform="translate(376.291,601.153)"><circle r="13.5" /></g><g id="node-43" transform="translate(311.033,691.262)"><circle r="13.5" /></g><g id="node-44" transform="translate(376.291,636.317)"><circle r="13.5" /></g><g id="node-45" transform="translate(343.662,587.966)"><circle r="13.5" /></g><g id="node-46" transform="translate(278.404,663.790)"><circle r="13.5" /></g><g id="node-47" transform="translate(311.033,572.581)"><circle r="13.5" /></g><g id="node-48" transform="translate(376.291,425.329)"><circle r="13.5" /></g><g id="node-49" transform="translate(245.775,618.185)"><circle r="13.5" /></g><g id="node-50" transform="translate(376.291,513.241)"><circle r="13.5" /></g><g id="node-51" transform="translate(343.662,412.142)"><circle r="13.5" /></g><g id="node-52" transform="translate(376.291,354.999)"><circle r="13.5" /></g><g id="node-53" transform="translate(376.291,302.252)"><circle r="13.5" /></g><g id="node-54" transform="translate(376.291,249.505)"><circle r="13.5" /></g><g id="node-55" transform="translate(376.291,196.758)"><circle r="13.5" /></g><g id="node-56" transform="translate(213.145,578.900)"><circle r="13.5" /></g><g id="node-57" transform="translate(343.662,500.054)"><circle r="13.5" /></g><g id="node-58" transform="translate(311.033,396.757)"><circle r="13.5" /></g><g id="node-59" transform="translate(343.662,341.812)"><circle r="13.5" /></g><g id="node-60" transform="translate(343.662,289.065)"><circle r="13.5" /></g><g id="node-61" transform="translate(343.662,236.318)"><circle r="13.5" /></g><g id="node-62" transform="translate(343.662,183.571)"><circle r="13.5" /></g><g id="node-63" transform="translate(180.516,539.477)"><circle r="13.5" /></g><g id="node-64" transform="translate(376.291,460.493)"><circle r="13.5" /></g><g id="node-65" transform="translate(278.404,369.285)"><circle r="13.5" /></g><g id="node-66" transform="translate(311.033,262.692)"><circle r="13.5" /></g><g id="node-67" transform="translate(311.033,168.186)"><circle r="13.5" /></g><g id="node-68" transform="translate(376.291,126.428)"><circle r="13.5" /></g><g id="node-69" transform="translate(147.887,499.985)"><circle r="13.5" /></g><g id="node-70" transform="translate(245.775,315.988)"><circle r="13.5" /></g><g id="node-71" transform="translate(278.404,147.307)"><circle r="13.5" /></g><g id="node-72" transform="translate(376.291,91.263)"><circle r="13.5" /></g><g id="node-73" transform="translate(115.258,407.987)"><circle r="13.5" /></g><g id="node-74" transform="translate(245.775,119.285)"><circle r="13.5" /></g><g id="node-75" transform="translate(82.629,263.636)"><circle r="13.5" /></g><g id="node-76" transform="translate(50.000,164.263)"><circle r="0.0" /></g></g><g class="toytree-NodeLabels" style="fill:rgb(14.9%,14.9%,14.9%);fill-opacity:1.0;font-size:15px;stroke:none"><g transform="translate(367.95,728.06)"><text>50</text></g><g transform="translate(335.32,714.87)"><text>42</text></g><g transform="translate(367.95,675.31)"><text>39</text></g><g transform="translate(367.95,604.99)"><text>77</text></g><g transform="translate(302.69,695.09)"><text>40</text></g><g transform="translate(367.95,640.15)"><text>54</text></g><g transform="translate(335.32,591.80)"><text>45</text></g><g transform="translate(270.06,667.62)"><text>58</text></g><g transform="translate(302.69,576.41)"><text>46</text></g><g transform="translate(367.95,429.16)"><text>40</text></g><g transform="translate(237.43,622.02)"><text>58</text></g><g transform="translate(367.95,517.07)"><text>42</text></g><g transform="translate(335.32,415.97)"><text>48</text></g><g transform="translate(367.95,358.83)"><text>54</text></g><g transform="translate(367.95,306.08)"><text>61</text></g><g transform="translate(367.95,253.34)"><text>42</text></g><g transform="translate(367.95,200.59)"><text>47</text></g><g transform="translate(204.81,582.73)"><text>53</text></g><g transform="translate(335.32,503.89)"><text>75</text></g><g transform="translate(302.69,400.59)"><text>34</text></g><g transform="translate(335.32,345.64)"><text>49</text></g><g transform="translate(335.32,292.90)"><text>37</text></g><g transform="translate(335.32,240.15)"><text>69</text></g><g transform="translate(335.32,187.40)"><text>47</text></g><g transform="translate(172.18,543.31)"><text>79</text></g><g transform="translate(367.95,464.33)"><text>51</text></g><g transform="translate(270.06,373.12)"><text>76</text></g><g transform="translate(302.69,266.52)"><text>37</text></g><g transform="translate(302.69,172.02)"><text>48</text></g><g transform="translate(367.95,130.26)"><text>50</text></g><g transform="translate(139.55,503.82)"><text>46</text></g><g transform="translate(237.43,319.82)"><text>59</text></g><g transform="translate(270.06,151.14)"><text>44</text></g><g transform="translate(367.95,95.10)"><text>70</text></g><g transform="translate(106.92,411.82)"><text>43</text></g><g transform="translate(237.43,123.12)"><text>64</text></g><g transform="translate(70.12,267.47)"><text>100</text></g></g><g class="toytree-TipLabels" style="fill:rgb(14.9%,14.9%,14.9%);fill-opacity:1.0;font-family:helvetica;font-size:16px;font-weight:normal;stroke:none;white-space:pre"><g transform="translate(408.92,733.02)rotate(0)"><text style="fill:rgb(100%,64.7%,0%);fill-opacity:1.0" x="15.00" y="4.09">quitensis</text></g><g transform="translate(408.92,715.44)rotate(0)"><text style="fill:rgb(100%,64.7%,0%);fill-opacity:1.0" x="15.00" y="4.09">caudatus</text></g><g transform="translate(408.92,697.86)rotate(0)"><text style="fill:rgb(100%,64.7%,0%);fill-opacity:1.0" x="15.00" y="4.09">hybridus1</text></g><g transform="translate(408.92,680.27)rotate(0)"><text style="fill:rgb(100%,64.7%,0%);fill-opacity:1.0" x="15.00" y="4.09">hypochondriacus</text></g><g transform="translate(408.92,662.69)rotate(0)"><text style="fill:rgb(100%,64.7%,0%);fill-opacity:1.0" x="15.00" y="4.09">hybridus3</text></g><g transform="translate(408.92,645.11)rotate(0)"><text style="fill:rgb(100%,64.7%,0%);fill-opacity:1.0" x="15.00" y="4.09">cruentus</text></g><g transform="translate(408.92,627.53)rotate(0)"><text style="fill:rgb(100%,64.7%,0%);fill-opacity:1.0" x="15.00" y="4.09">hybridus2</text></g><g transform="translate(408.92,609.94)rotate(0)"><text style="fill:rgb(100%,64.7%,0%);fill-opacity:1.0" x="15.00" y="4.09">retroflexus</text></g><g transform="translate(408.92,592.36)rotate(0)"><text style="fill:rgb(100%,64.7%,0%);fill-opacity:1.0" x="15.00" y="4.09">wrightii</text></g><g transform="translate(408.92,574.78)rotate(0)"><text style="fill:rgb(100%,64.7%,0%);fill-opacity:1.0" x="15.00" y="4.09">powellii</text></g><g transform="translate(408.92,557.20)rotate(0)"><text style="fill:rgb(100%,64.7%,0%);fill-opacity:1.0" x="15.00" y="4.09">acutilobus</text></g><g transform="translate(408.92,539.61)rotate(0)"><text style="fill:rgb(100%,64.7%,0%);fill-opacity:1.0" x="15.00" y="4.09">dubius</text></g><g transform="translate(408.92,522.03)rotate(0)"><text style="fill:rgb(100%,64.7%,0%);fill-opacity:1.0" x="15.00" y="4.09">spinosus</text></g><g transform="translate(408.92,504.45)rotate(0)"><text style="fill:rgb(100%,64.7%,0%);fill-opacity:1.0" x="15.00" y="4.09">watsonii</text></g><g transform="translate(408.92,486.87)rotate(0)"><text style="fill:rgb(100%,64.7%,0%);fill-opacity:1.0" x="15.00" y="4.09">palmeri</text></g><g transform="translate(408.92,469.28)rotate(0)"><text style="fill:rgb(0%,50.2%,0%);fill-opacity:1.0" x="15.00" y="4.09">fimbriatus</text></g><g transform="translate(408.92,451.70)rotate(0)"><text style="fill:rgb(0%,50.2%,0%);fill-opacity:1.0" x="15.00" y="4.09">tucsonensis</text></g><g transform="translate(408.92,434.12)rotate(0)"><text style="fill:rgb(100%,0%,0%);fill-opacity:1.0" x="15.00" y="4.09">deflexus</text></g><g transform="translate(408.92,416.54)rotate(0)"><text style="fill:rgb(100%,0%,0%);fill-opacity:1.0" x="15.00" y="4.09">viridis</text></g><g transform="translate(408.92,398.96)rotate(0)"><text style="fill:rgb(100%,0%,0%);fill-opacity:1.0" x="15.00" y="4.09">muricatus</text></g><g transform="translate(408.92,381.37)rotate(0)"><text style="fill:rgb(100%,0%,0%);fill-opacity:1.0" x="15.00" y="4.09">standleyanus</text></g><g transform="translate(408.92,363.79)rotate(0)"><text style="fill:rgb(50.2%,0%,50.2%);fill-opacity:1.0" x="15.00" y="4.09">tricolor</text></g><g transform="translate(408.92,346.21)rotate(0)"><text style="fill:rgb(50.2%,0%,50.2%);fill-opacity:1.0" x="15.00" y="4.09">graecizans</text></g><g transform="translate(408.92,328.63)rotate(0)"><text style="fill:rgb(50.2%,0%,50.2%);fill-opacity:1.0" x="15.00" y="4.09">blitum</text></g><g transform="translate(408.92,311.04)rotate(0)"><text style="fill:rgb(0%,50.2%,0%);fill-opacity:1.0" x="15.00" y="4.09">crassipes</text></g><g transform="translate(408.92,293.46)rotate(0)"><text style="fill:rgb(0%,50.2%,0%);fill-opacity:1.0" x="15.00" y="4.09">tamaulipensis</text></g><g transform="translate(408.92,275.88)rotate(0)"><text style="fill:rgb(0%,50.2%,0%);fill-opacity:1.0" x="15.00" y="4.09">torreyi</text></g><g transform="translate(408.92,258.30)rotate(0)"><text style="fill:rgb(0%,50.2%,0%);fill-opacity:1.0" x="15.00" y="4.09">californicus</text></g><g transform="translate(408.92,240.71)rotate(0)"><text style="fill:rgb(0%,50.2%,0%);fill-opacity:1.0" x="15.00" y="4.09">albus</text></g><g transform="translate(408.92,223.13)rotate(0)"><text style="fill:rgb(0%,50.2%,0%);fill-opacity:1.0" x="15.00" y="4.09">blitoides</text></g><g transform="translate(408.92,205.55)rotate(0)"><text style="fill:rgb(0%,0%,100%);fill-opacity:1.0" x="15.00" y="4.09">acanthochiton</text></g><g transform="translate(408.92,187.97)rotate(0)"><text style="fill:rgb(0%,0%,100%);fill-opacity:1.0" x="15.00" y="4.09">greggii</text></g><g transform="translate(408.92,170.38)rotate(0)"><text style="fill:rgb(0%,0%,100%);fill-opacity:1.0" x="15.00" y="4.09">arenicola</text></g><g transform="translate(408.92,152.80)rotate(0)"><text style="fill:rgb(0%,0%,100%);fill-opacity:1.0" x="15.00" y="4.09">pumilus</text></g><g transform="translate(408.92,135.22)rotate(0)"><text style="fill:rgb(0%,0%,100%);fill-opacity:1.0" x="15.00" y="4.09">floridanus</text></g><g transform="translate(408.92,117.64)rotate(0)"><text style="fill:rgb(0%,0%,100%);fill-opacity:1.0" x="15.00" y="4.09">tuberculatus</text></g><g transform="translate(408.92,100.05)rotate(0)"><text style="fill:rgb(0%,0%,100%);fill-opacity:1.0" x="15.00" y="4.09">australis</text></g><g transform="translate(408.92,82.47)rotate(0)"><text style="fill:rgb(0%,0%,100%);fill-opacity:1.0" x="15.00" y="4.09">cannabinus</text></g><g transform="translate(408.92,64.89)rotate(0)"><text style="fill:rgb(0%,0%,0%);fill-opacity:1.0" x="15.00" y="4.09">beet</text></g></g></g></g></g></svg>