<svg class="toyplot-canvas-Canvas" height="800.0px" id="t2156067ce8e34f5ebff30c0eecb0b154" preserveAspectRatio="xMidYMid meet" style="background-color:transparent;border-color:#292724;border-style:none;border-width:1.0;fill:rgb(16.1%,15.3%,14.1%);fill-opacity:1.0;font-family:Helvetica;font-size:12px;opacity:1.0;stroke:rgb(16.1%,15.3%,14.1%);stroke-opacity:1.0;stroke-width:1.0" viewBox="0 0 600.0 800.0" width="600.0px" xmlns="http://www.w3.org/2000/svg" xmlns:toyplot="http://www.sandia.gov/toyplot" xmlns:xlink="http://www.w3.org/1999/xlink"><g class="toyplot-coordinates-Cartesian" id="t162a95922cda4658975028e572f0ae39"><clipPath id="t7b5be0f8ef354f81b2a1b37071b2299b"><rect height="740.0" width="540.0" x="30.0" y="30.0" /></clipPath><g clip-path="url(#t7b5be0f8ef354f81b2a1b37071b2299b)"><g class="toytree-mark-Toytree" id="t0fc7dcc1f9494d438676cbc3c0e7d2bc"><g class="toytree-Edges" style="fill:none;stroke:rgb(14.9%,14.9%,14.9%);stroke-linecap:round;stroke-opacity:1;stroke-width:2"><path d="M 50.0 172.2 L 50.0 279.6 L 79.9 279.6" id="76,75" /><path d="M 79.9 279.6 L 79.9 170.4 L 259.4 170.4" id="75,74" /><path d="M 79.9 279.6 L 79.9 388.8 L 109.8 388.8" id="75,73" /><path d="M 259.4 170.4 L 259.4 112.1 L 289.3 112.1" id="74,72" /><path d="M 259.4 170.4 L 259.4 228.6 L 289.3 228.6" id="74,71" /><path d="M 109.8 388.8 L 109.8 319.8 L 379.0 319.8" id="73,70" /><path d="M 109.8 388.8 L 109.8 457.8 L 139.7 457.8" id="73,69" /><path d="M 289.3 112.1 L 289.3 91.3 L 379.0 91.3" id="72,68" /><path d="M 289.3 112.1 L 289.3 133.0 L 319.2 133.0" id="72,67" /><path d="M 289.3 228.6 L 289.3 201.2 L 349.1 201.2" id="71,66" /><path d="M 289.3 228.6 L 289.3 256.1 L 319.2 256.1" id="71,65" /><path d="M 139.7 457.8 L 139.7 383.0 L 259.4 383.0" id="69,64" /><path d="M 139.7 457.8 L 139.7 532.6 L 169.6 532.6" id="69,63" /><path d="M 319.2 133.0 L 319.2 148.4 L 349.1 148.4" id="67,62" /><path d="M 349.1 201.2 L 349.1 214.3 L 379.0 214.3" id="66,61" /><path d="M 319.2 256.1 L 319.2 271.5 L 349.1 271.5" id="65,60" /><path d="M 259.4 383.0 L 259.4 355.0 L 379.0 355.0" id="64,59" /><path d="M 259.4 383.0 L 259.4 411.0 L 289.3 411.0" id="64,58" /><path d="M 169.6 532.6 L 169.6 500.1 L 349.1 500.1" id="63,57" /><path d="M 169.6 532.6 L 169.6 565.2 L 199.6 565.2" id="63,56" /><path d="M 349.1 148.4 L 349.1 161.6 L 379.0 161.6" id="62,55" /><path d="M 349.1 271.5 L 349.1 284.7 L 379.0 284.7" id="60,54" /><path d="M 289.3 411.0 L 289.3 390.2 L 379.0 390.2" id="58,53" /><path d="M 289.3 411.0 L 289.3 431.9 L 319.2 431.9" id="58,52" /><path d="M 349.1 500.1 L 349.1 513.2 L 379.0 513.2" id="57,51" /><path d="M 199.6 565.2 L 199.6 590.7 L 229.5 590.7" id="56,50" /><path d="M 319.2 431.9 L 319.2 447.3 L 349.1 447.3" id="52,49" /><path d="M 229.5 590.7 L 229.5 624.2 L 259.4 624.2" id="50,48" /><path d="M 349.1 447.3 L 349.1 460.5 L 379.0 460.5" id="49,47" /><path d="M 259.4 624.2 L 259.4 588.0 L 349.1 588.0" id="48,46" /><path d="M 259.4 624.2 L 259.4 660.5 L 289.3 660.5" id="48,45" /><path d="M 349.1 588.0 L 349.1 601.2 L 379.0 601.2" id="46,44" /><path d="M 289.3 660.5 L 289.3 636.3 L 379.0 636.3" id="45,43" /><path d="M 289.3 660.5 L 289.3 684.7 L 319.2 684.7" id="45,42" /><path d="M 319.2 684.7 L 319.2 706.6 L 349.1 706.6" id="42,41" /><path d="M 349.1 706.6 L 349.1 689.1 L 379.0 689.1" id="41,40" /><path d="M 349.1 706.6 L 349.1 724.2 L 379.0 724.2" id="41,39" /><path d="M 50.0 172.2 L 50.0 64.9 L 408.9 64.9" id="76,38" /><path d="M 379.0 91.3 L 379.0 82.5 L 408.9 82.5" id="68,37" /><path d="M 379.0 91.3 L 379.0 100.1 L 408.9 100.1" id="68,36" /><path d="M 319.2 133.0 L 319.2 117.6 L 408.9 117.6" id="67,35" /><path d="M 349.1 148.4 L 349.1 135.2 L 408.9 135.2" id="62,34" /><path d="M 379.0 161.6 L 379.0 152.8 L 408.9 152.8" id="55,33" /><path d="M 379.0 161.6 L 379.0 170.4 L 408.9 170.4" id="55,32" /><path d="M 349.1 201.2 L 349.1 188.0 L 408.9 188.0" id="66,31" /><path d="M 379.0 214.3 L 379.0 205.5 L 408.9 205.5" id="61,30" /><path d="M 379.0 214.3 L 379.0 223.1 L 408.9 223.1" id="61,29" /><path d="M 319.2 256.1 L 319.2 240.7 L 408.9 240.7" id="65,28" /><path d="M 349.1 271.5 L 349.1 258.3 L 408.9 258.3" id="60,27" /><path d="M 379.0 284.7 L 379.0 275.9 L 408.9 275.9" id="54,26" /><path d="M 379.0 284.7 L 379.0 293.5 L 408.9 293.5" id="54,25" /><path d="M 379.0 319.8 L 379.0 311.0 L 408.9 311.0" id="70,24" /><path d="M 379.0 319.8 L 379.0 328.6 L 408.9 328.6" id="70,23" /><path d="M 379.0 355.0 L 379.0 346.2 L 408.9 346.2" id="59,22" /><path d="M 379.0 355.0 L 379.0 363.8 L 408.9 363.8" id="59,21" /><path d="M 379.0 390.2 L 379.0 381.4 L 408.9 381.4" id="53,20" /><path d="M 379.0 390.2 L 379.0 399.0 L 408.9 399.0" id="53,19" /><path d="M 319.2 431.9 L 319.2 416.5 L 408.9 416.5" id="52,18" /><path d="M 349.1 447.3 L 349.1 434.1 L 408.9 434.1" id="49,17" /><path d="M 379.0 460.5 L 379.0 451.7 L 408.9 451.7" id="47,16" /><path d="M 379.0 460.5 L 379.0 469.3 L 408.9 469.3" id="47,15" /><path d="M 349.1 500.1 L 349.1 486.9 L 408.9 486.9" id="57,14" /><path d="M 379.0 513.2 L 379.0 504.4 L 408.9 504.4" id="51,13" /><path d="M 379.0 513.2 L 379.0 522.0 L 408.9 522.0" id="51,12" /><path d="M 199.6 565.2 L 199.6 539.6 L 408.9 539.6" id="56,11" /><path d="M 229.5 590.7 L 229.5 557.2 L 408.9 557.2" id="50,10" /><path d="M 349.1 588.0 L 349.1 574.8 L 408.9 574.8" id="46,9" /><path d="M 379.0 601.2 L 379.0 592.4 L 408.9 592.4" id="44,8" /><path d="M 379.0 601.2 L 379.0 609.9 L 408.9 609.9" id="44,7" /><path d="M 379.0 636.3 L 379.0 627.5 L 408.9 627.5" id="43,6" /><path d="M 379.0 636.3 L 379.0 645.1 L 408.9 645.1" id="43,5" /><path d="M 319.2 684.7 L 319.2 662.7 L 408.9 662.7" id="42,4" /><path d="M 379.0 689.1 L 379.0 680.3 L 408.9 680.3" id="40,3" /><path d="M 379.0 689.1 L 379.0 697.9 L 408.9 697.9" id="40,2" /><path d="M 379.0 724.2 L 379.0 715.4 L 408.9 715.4" id="39,1" /><path d="M 379.0 724.2 L 379.0 733.0 L 408.9 733.0" id="39,0" /></g><g class="toytree-AlignEdges" style="stroke:rgb(66.3%,66.3%,66.3%);stroke-dasharray:2, 4;stroke-linecap:round;stroke-opacity:1.0;stroke-width:2"><path d="M 408.9 733.0 L 408.9 733.0" /><path d="M 408.9 715.4 L 408.9 715.4" /><path d="M 408.9 697.9 L 408.9 697.9" /><path d="M 408.9 680.3 L 408.9 680.3" /><path d="M 408.9 662.7 L 408.9 662.7" /><path d="M 408.9 645.1 L 408.9 645.1" /><path d="M 408.9 627.5 L 408.9 627.5" /><path d="M 408.9 609.9 L 408.9 609.9" /><path d="M 408.9 592.4 L 408.9 592.4" /><path d="M 408.9 574.8 L 408.9 574.8" /><path d="M 408.9 557.2 L 408.9 557.2" /><path d="M 408.9 539.6 L 408.9 539.6" /><path d="M 408.9 522.0 L 408.9 522.0" /><path d="M 408.9 504.4 L 408.9 504.4" /><path d="M 408.9 486.9 L 408.9 486.9" /><path d="M 408.9 469.3 L 408.9 469.3" /><path d="M 408.9 451.7 L 408.9 451.7" /><path d="M 408.9 434.1 L 408.9 434.1" /><path d="M 408.9 416.5 L 408.9 416.5" /><path d="M 408.9 399.0 L 408.9 399.0" /><path d="M 408.9 381.4 L 408.9 381.4" /><path d="M 408.9 363.8 L 408.9 363.8" /><path d="M 408.9 346.2 L 408.9 346.2" /><path d="M 408.9 328.6 L 408.9 328.6" /><path d="M 408.9 311.0 L 408.9 311.0" /><path d="M 408.9 293.5 L 408.9 293.5" /><path d="M 408.9 275.9 L 408.9 275.9" /><path d="M 408.9 258.3 L 408.9 258.3" /><path d="M 408.9 240.7 L 408.9 240.7" /><path d="M 408.9 223.1 L 408.9 223.1" /><path d="M 408.9 205.5 L 408.9 205.5" /><path d="M 408.9 188.0 L 408.9 188.0" /><path d="M 408.9 170.4 L 408.9 170.4" /><path d="M 408.9 152.8 L 408.9 152.8" /><path d="M 408.9 135.2 L 408.9 135.2" /><path d="M 408.9 117.6 L 408.9 117.6" /><path d="M 408.9 100.1 L 408.9 100.1" /><path d="M 408.9 82.5 L 408.9 82.5" /><path d="M 408.9 64.9 L 408.9 64.9" /></g><g class="toytree-Nodes" style="fill:rgb(100%,100%,100%);fill-opacity:1.0;stroke:rgb(0%,0%,0%);stroke-opacity:1.0;stroke-width:1"><g id="node-0" transform="translate(408.920,733.020)"><circle r="0.0" /></g><g id="node-1" transform="translate(408.920,715.438)"><circle r="0.0" /></g><g id="node-2" transform="translate(408.920,697.856)"><circle r="0.0" /></g><g id="node-3" transform="translate(408.920,680.273)"><circle r="0.0" /></g><g id="node-4" transform="translate(408.920,662.691)"><circle r="0.0" /></g><g id="node-5" transform="translate(408.920,645.109)"><circle r="0.0" /></g><g id="node-6" transform="translate(408.920,627.526)"><circle r="0.0" /></g><g id="node-7" transform="translate(408.920,609.944)"><circle r="0.0" /></g><g id="node-8" transform="translate(408.920,592.361)"><circle r="0.0" /></g><g id="node-9" transform="translate(408.920,574.779)"><circle r="0.0" /></g><g id="node-10" transform="translate(408.920,557.197)"><circle r="0.0" /></g><g id="node-11" transform="translate(408.920,539.614)"><circle r="0.0" /></g><g id="node-12" transform="translate(408.920,522.032)"><circle r="0.0" /></g><g id="node-13" transform="translate(408.920,504.449)"><circle r="0.0" /></g><g id="node-14" transform="translate(408.920,486.867)"><circle r="0.0" /></g><g id="node-15" transform="translate(408.920,469.285)"><circle r="0.0" /></g><g id="node-16" transform="translate(408.920,451.702)"><circle r="0.0" /></g><g id="node-17" transform="translate(408.920,434.120)"><circle r="0.0" /></g><g id="node-18" transform="translate(408.920,416.537)"><circle r="0.0" /></g><g id="node-19" transform="translate(408.920,398.955)"><circle r="0.0" /></g><g id="node-20" transform="translate(408.920,381.373)"><circle r="0.0" /></g><g id="node-21" transform="translate(408.920,363.790)"><circle r="0.0" /></g><g id="node-22" transform="translate(408.920,346.208)"><circle r="0.0" /></g><g id="node-23" transform="translate(408.920,328.626)"><circle r="0.0" /></g><g id="node-24" transform="translate(408.920,311.043)"><circle r="0.0" /></g><g id="node-25" transform="translate(408.920,293.461)"><circle r="0.0" /></g><g id="node-26" transform="translate(408.920,275.878)"><circle r="0.0" /></g><g id="node-27" transform="translate(408.920,258.296)"><circle r="0.0" /></g><g id="node-28" transform="translate(408.920,240.714)"><circle r="0.0" /></g><g id="node-29" transform="translate(408.920,223.131)"><circle r="0.0" /></g><g id="node-30" transform="translate(408.920,205.549)"><circle r="0.0" /></g><g id="node-31" transform="translate(408.920,187.966)"><circle r="0.0" /></g><g id="node-32" transform="translate(408.920,170.384)"><circle r="0.0" /></g><g id="node-33" transform="translate(408.920,152.802)"><circle r="0.0" /></g><g id="node-34" transform="translate(408.920,135.219)"><circle r="0.0" /></g><g id="node-35" transform="translate(408.920,117.637)"><circle r="0.0" /></g><g id="node-36" transform="translate(408.920,100.055)"><circle r="0.0" /></g><g id="node-37" transform="translate(408.920,82.472)"><circle r="0.0" /></g><g id="node-38" transform="translate(408.920,64.890)"><circle r="0.0" /></g><g id="node-39" transform="translate(379.010,724.229)"><circle r="13.5" /></g><g id="node-40" transform="translate(379.010,689.064)"><circle r="13.5" /></g><g id="node-41" transform="translate(349.100,706.647)"><circle r="13.5" /></g><g id="node-42" transform="translate(319.190,684.669)"><circle r="13.5" /></g><g id="node-43" transform="translate(379.010,636.317)"><circle r="13.5" /></g><g id="node-44" transform="translate(379.010,601.153)"><circle r="13.5" /></g><g id="node-45" transform="translate(289.280,660.493)"><circle r="13.5" /></g><g id="node-46" transform="translate(349.100,587.966)"><circle r="13.5" /></g><g id="node-47" transform="translate(379.010,460.493)"><circle r="13.5" /></g><g id="node-48" transform="translate(259.370,624.229)"><circle r="13.5" /></g><g id="node-49" transform="translate(349.100,447.307)"><circle r="13.5" /></g><g id="node-50" transform="translate(229.460,590.713)"><circle r="13.5" /></g><g id="node-51" transform="translate(379.010,513.241)"><circle r="13.5" /></g><g id="node-52" transform="translate(319.190,431.922)"><circle r="13.5" /></g><g id="node-53" transform="translate(379.010,390.164)"><circle r="13.5" /></g><g id="node-54" transform="translate(379.010,284.670)"><circle r="13.5" /></g><g id="node-55" transform="translate(379.010,161.593)"><circle r="13.5" /></g><g id="node-56" transform="translate(199.550,565.164)"><circle r="13.5" /></g><g id="node-57" transform="translate(349.100,500.054)"><circle r="13.5" /></g><g id="node-58" transform="translate(289.280,411.043)"><circle r="13.5" /></g><g id="node-59" transform="translate(379.010,354.999)"><circle r="13.5" /></g><g id="node-60" transform="translate(349.100,271.483)"><circle r="13.5" /></g><g id="node-61" transform="translate(379.010,214.340)"><circle r="13.5" /></g><g id="node-62" transform="translate(349.100,148.406)"><circle r="13.5" /></g><g id="node-63" transform="translate(169.640,532.609)"><circle r="13.5" /></g><g id="node-64" transform="translate(259.370,383.021)"><circle r="13.5" /></g><g id="node-65" transform="translate(319.190,256.098)"><circle r="13.5" /></g><g id="node-66" transform="translate(349.100,201.153)"><circle r="13.5" /></g><g id="node-67" transform="translate(319.190,133.022)"><circle r="13.5" /></g><g id="node-68" transform="translate(379.010,91.263)"><circle r="13.5" /></g><g id="node-69" transform="translate(139.730,457.815)"><circle r="13.5" /></g><g id="node-70" transform="translate(379.010,319.834)"><circle r="13.5" /></g><g id="node-71" transform="translate(289.280,228.626)"><circle r="13.5" /></g><g id="node-72" transform="translate(289.280,112.142)"><circle r="13.5" /></g><g id="node-73" transform="translate(109.820,388.825)"><circle r="13.5" /></g><g id="node-74" transform="translate(259.370,170.384)"><circle r="13.5" /></g><g id="node-75" transform="translate(79.910,279.604)"><circle r="13.5" /></g><g id="node-76" transform="translate(50.000,172.247)"><circle r="0.0" /></g></g><g class="toytree-NodeLabels" style="fill:rgb(14.9%,14.9%,14.9%);fill-opacity:1.0;font-size:15px;stroke:none"><g transform="translate(370.67,728.06)"><text>47</text></g><g transform="translate(370.67,692.90)"><text>36</text></g><g transform="translate(340.76,710.48)"><text>40</text></g><g transform="translate(310.85,688.50)"><text>36</text></g><g transform="translate(370.67,640.15)"><text>54</text></g><g transform="translate(370.67,604.99)"><text>66</text></g><g transform="translate(280.94,664.33)"><text>52</text></g><g transform="translate(340.76,591.80)"><text>46</text></g><g transform="translate(370.67,464.33)"><text>38</text></g><g transform="translate(251.03,628.06)"><text>38</text></g><g transform="translate(340.76,451.14)"><text>36</text></g><g transform="translate(221.12,594.55)"><text>59</text></g><g transform="translate(370.67,517.07)"><text>34</text></g><g transform="translate(310.85,435.75)"><text>40</text></g><g transform="translate(370.67,394.00)"><text>46</text></g><g transform="translate(370.67,288.50)"><text>40</text></g><g transform="translate(370.67,165.43)"><text>39</text></g><g transform="translate(191.21,569.00)"><text>54</text></g><g transform="translate(340.76,503.89)"><text>65</text></g><g transform="translate(280.94,414.88)"><text>45</text></g><g transform="translate(370.67,358.83)"><text>69</text></g><g transform="translate(340.76,275.32)"><text>48</text></g><g transform="translate(370.67,218.17)"><text>39</text></g><g transform="translate(340.76,152.24)"><text>66</text></g><g transform="translate(161.30,536.44)"><text>75</text></g><g transform="translate(251.03,386.85)"><text>64</text></g><g transform="translate(310.85,259.93)"><text>34</text></g><g transform="translate(340.76,204.99)"><text>51</text></g><g transform="translate(310.85,136.85)"><text>43</text></g><g transform="translate(370.67,95.10)"><text>50</text></g><g transform="translate(131.39,461.65)"><text>46</text></g><g transform="translate(370.67,323.67)"><text>53</text></g><g transform="translate(280.94,232.46)"><text>65</text></g><g transform="translate(280.94,115.97)"><text>36</text></g><g transform="translate(101.48,392.66)"><text>39</text></g><g transform="translate(251.03,174.22)"><text>46</text></g><g transform="translate(67.40,283.44)"><text>100</text></g></g><g class="toytree-TipLabels" style="fill:rgb(14.9%,14.9%,14.9%);fill-opacity:1.0;font-family:helvetica;font-size:16px;font-weight:normal;stroke:none;white-space:pre"><g transform="translate(408.92,733.02)rotate(0)"><text style="fill:rgb(100%,64.7%,0%);fill-opacity:1.0" x="15.00" y="4.09">caudatus</text></g><g transform="translate(408.92,715.44)rotate(0)"><text style="fill:rgb(100%,64.7%,0%);fill-opacity:1.0" x="15.00" y="4.09">quitensis</text></g><g transform="translate(408.92,697.86)rotate(0)"><text style="fill:rgb(100%,64.7%,0%);fill-opacity:1.0" x="15.00" y="4.09">hybridus1</text></g><g transform="translate(408.92,680.27)rotate(0)"><text style="fill:rgb(100%,64.7%,0%);fill-opacity:1.0" x="15.00" y="4.09">hypochondriacus</text></g><g transform="translate(408.92,662.69)rotate(0)"><text style="fill:rgb(100%,64.7%,0%);fill-opacity:1.0" x="15.00" y="4.09">hybridus3</text></g><g transform="translate(408.92,645.11)rotate(0)"><text style="fill:rgb(100%,64.7%,0%);fill-opacity:1.0" x="15.00" y="4.09">hybridus2</text></g><g transform="translate(408.92,627.53)rotate(0)"><text style="fill:rgb(100%,64.7%,0%);fill-opacity:1.0" x="15.00" y="4.09">cruentus</text></g><g transform="translate(408.92,609.94)rotate(0)"><text style="fill:rgb(100%,64.7%,0%);fill-opacity:1.0" x="15.00" y="4.09">wrightii</text></g><g transform="translate(408.92,592.36)rotate(0)"><text style="fill:rgb(100%,64.7%,0%);fill-opacity:1.0" x="15.00" y="4.09">retroflexus</text></g><g transform="translate(408.92,574.78)rotate(0)"><text style="fill:rgb(100%,64.7%,0%);fill-opacity:1.0" x="15.00" y="4.09">powellii</text></g><g transform="translate(408.92,557.20)rotate(0)"><text style="fill:rgb(100%,64.7%,0%);fill-opacity:1.0" x="15.00" y="4.09">acutilobus</text></g><g transform="translate(408.92,539.61)rotate(0)"><text style="fill:rgb(100%,64.7%,0%);fill-opacity:1.0" x="15.00" y="4.09">dubius</text></g><g transform="translate(408.92,522.03)rotate(0)"><text style="fill:rgb(100%,64.7%,0%);fill-opacity:1.0" x="15.00" y="4.09">palmeri</text></g><g transform="translate(408.92,504.45)rotate(0)"><text style="fill:rgb(100%,64.7%,0%);fill-opacity:1.0" x="15.00" y="4.09">watsonii</text></g><g transform="translate(408.92,486.87)rotate(0)"><text style="fill:rgb(100%,64.7%,0%);fill-opacity:1.0" x="15.00" y="4.09">spinosus</text></g><g transform="translate(408.92,469.28)rotate(0)"><text style="fill:rgb(0%,0%,100%);fill-opacity:1.0" x="15.00" y="4.09">arenicola</text></g><g transform="translate(408.92,451.70)rotate(0)"><text style="fill:rgb(0%,0%,100%);fill-opacity:1.0" x="15.00" y="4.09">greggii</text></g><g transform="translate(408.92,434.12)rotate(0)"><text style="fill:rgb(0%,0%,100%);fill-opacity:1.0" x="15.00" y="4.09">acanthochiton</text></g><g transform="translate(408.92,416.54)rotate(0)"><text style="fill:rgb(0%,0%,100%);fill-opacity:1.0" x="15.00" y="4.09">pumilus</text></g><g transform="translate(408.92,398.96)rotate(0)"><text style="fill:rgb(0%,0%,100%);fill-opacity:1.0" x="15.00" y="4.09">tuberculatus</text></g><g transform="translate(408.92,381.37)rotate(0)"><text style="fill:rgb(0%,0%,100%);fill-opacity:1.0" x="15.00" y="4.09">floridanus</text></g><g transform="translate(408.92,363.79)rotate(0)"><text style="fill:rgb(0%,0%,100%);fill-opacity:1.0" x="15.00" y="4.09">cannabinus</text></g><g transform="translate(408.92,346.21)rotate(0)"><text style="fill:rgb(0%,0%,100%);fill-opacity:1.0" x="15.00" y="4.09">australis</text></g><g transform="translate(408.92,328.63)rotate(0)"><text style="fill:rgb(0%,50.2%,0%);fill-opacity:1.0" x="15.00" y="4.09">fimbriatus</text></g><g transform="translate(408.92,311.04)rotate(0)"><text style="fill:rgb(0%,50.2%,0%);fill-opacity:1.0" x="15.00" y="4.09">tucsonensis</text></g><g transform="translate(408.92,293.46)rotate(0)"><text style="fill:rgb(100%,0%,0%);fill-opacity:1.0" x="15.00" y="4.09">deflexus</text></g><g transform="translate(408.92,275.88)rotate(0)"><text style="fill:rgb(100%,0%,0%);fill-opacity:1.0" x="15.00" y="4.09">viridis</text></g><g transform="translate(408.92,258.30)rotate(0)"><text style="fill:rgb(100%,0%,0%);fill-opacity:1.0" x="15.00" y="4.09">muricatus</text></g><g transform="translate(408.92,240.71)rotate(0)"><text style="fill:rgb(100%,0%,0%);fill-opacity:1.0" x="15.00" y="4.09">standleyanus</text></g><g transform="translate(408.92,223.13)rotate(0)"><text style="fill:rgb(50.2%,0%,50.2%);fill-opacity:1.0" x="15.00" y="4.09">tricolor</text></g><g transform="translate(408.92,205.55)rotate(0)"><text style="fill:rgb(50.2%,0%,50.2%);fill-opacity:1.0" x="15.00" y="4.09">graecizans</text></g><g transform="translate(408.92,187.97)rotate(0)"><text style="fill:rgb(50.2%,0%,50.2%);fill-opacity:1.0" x="15.00" y="4.09">blitum</text></g><g transform="translate(408.92,170.38)rotate(0)"><text style="fill:rgb(0%,50.2%,0%);fill-opacity:1.0" x="15.00" y="4.09">albus</text></g><g transform="translate(408.92,152.80)rotate(0)"><text style="fill:rgb(0%,50.2%,0%);fill-opacity:1.0" x="15.00" y="4.09">californicus</text></g><g transform="translate(408.92,135.22)rotate(0)"><text style="fill:rgb(0%,50.2%,0%);fill-opacity:1.0" x="15.00" y="4.09">blitoides</text></g><g transform="translate(408.92,117.64)rotate(0)"><text style="fill:rgb(0%,50.2%,0%);fill-opacity:1.0" x="15.00" y="4.09">torreyi</text></g><g transform="translate(408.92,100.05)rotate(0)"><text style="fill:rgb(0%,50.2%,0%);fill-opacity:1.0" x="15.00" y="4.09">tamaulipensis</text></g><g transform="translate(408.92,82.47)rotate(0)"><text style="fill:rgb(0%,50.2%,0%);fill-opacity:1.0" x="15.00" y="4.09">crassipes</text></g><g transform="translate(408.92,64.89)rotate(0)"><text style="fill:rgb(0%,0%,0%);fill-opacity:1.0" x="15.00" y="4.09">beet</text></g></g></g></g></g></svg>