<svg class="toyplot-canvas-Canvas" height="800.0px" id="t720e04542ef5438d9c755a76594be0a0" preserveAspectRatio="xMidYMid meet" style="background-color:transparent;border-color:#292724;border-style:none;border-width:1.0;fill:rgb(16.1%,15.3%,14.1%);fill-opacity:1.0;font-family:Helvetica;font-size:12px;opacity:1.0;stroke:rgb(16.1%,15.3%,14.1%);stroke-opacity:1.0;stroke-width:1.0" viewBox="0 0 600.0 800.0" width="600.0px" xmlns="http://www.w3.org/2000/svg" xmlns:toyplot="http://www.sandia.gov/toyplot" xmlns:xlink="http://www.w3.org/1999/xlink"><g class="toyplot-coordinates-Cartesian" id="tf4a1f7d6f1d64b8989f335ae313d0666"><clipPath id="tba9f6d97eac344cb810baf74ada13188"><rect height="740.0" width="540.0" x="30.0" y="30.0" /></clipPath><g clip-path="url(#tba9f6d97eac344cb810baf74ada13188)"><g class="toytree-mark-Toytree" id="tbaf4e8a62cd1490dafa76631f3139fbe"><g class="toytree-Edges" style="fill:none;stroke:rgb(14.9%,14.9%,14.9%);stroke-linecap:round;stroke-opacity:1;stroke-width:2"><path d="M 50.0 138.6 L 50.0 212.2 L 79.9 212.2" id="76,75" /><path d="M 79.9 212.2 L 79.9 91.3 L 379.0 91.3" id="75,74" /><path d="M 79.9 212.2 L 79.9 333.2 L 109.8 333.2" id="75,73" /><path d="M 109.8 333.2 L 109.8 205.5 L 259.4 205.5" id="73,72" /><path d="M 109.8 333.2 L 109.8 460.9 L 139.7 460.9" id="73,71" /><path d="M 259.4 205.5 L 259.4 147.3 L 289.3 147.3" id="72,70" /><path d="M 259.4 205.5 L 259.4 263.8 L 289.3 263.8" id="72,69" /><path d="M 139.7 460.9 L 139.7 383.0 L 259.4 383.0" id="71,68" /><path d="M 139.7 460.9 L 139.7 538.7 L 169.6 538.7" id="71,67" /><path d="M 289.3 147.3 L 289.3 126.4 L 379.0 126.4" id="70,66" /><path d="M 289.3 147.3 L 289.3 168.2 L 319.2 168.2" id="70,65" /><path d="M 289.3 263.8 L 289.3 236.3 L 349.1 236.3" id="69,64" /><path d="M 289.3 263.8 L 289.3 291.3 L 319.2 291.3" id="69,63" /><path d="M 259.4 383.0 L 259.4 355.0 L 379.0 355.0" id="68,62" /><path d="M 259.4 383.0 L 259.4 411.0 L 289.3 411.0" id="68,61" /><path d="M 169.6 538.7 L 169.6 500.1 L 349.1 500.1" id="67,60" /><path d="M 169.6 538.7 L 169.6 577.4 L 199.6 577.4" id="67,59" /><path d="M 319.2 168.2 L 319.2 183.6 L 349.1 183.6" id="65,58" /><path d="M 349.1 236.3 L 349.1 249.5 L 379.0 249.5" id="64,57" /><path d="M 319.2 291.3 L 319.2 306.6 L 349.1 306.6" id="63,56" /><path d="M 289.3 411.0 L 289.3 390.2 L 379.0 390.2" id="61,55" /><path d="M 289.3 411.0 L 289.3 431.9 L 319.2 431.9" id="61,54" /><path d="M 349.1 500.1 L 349.1 513.2 L 379.0 513.2" id="60,53" /><path d="M 199.6 577.4 L 199.6 615.2 L 229.5 615.2" id="59,52" /><path d="M 349.1 183.6 L 349.1 196.8 L 379.0 196.8" id="58,51" /><path d="M 349.1 306.6 L 349.1 319.8 L 379.0 319.8" id="56,50" /><path d="M 319.2 431.9 L 319.2 447.3 L 349.1 447.3" id="54,49" /><path d="M 229.5 615.2 L 229.5 572.6 L 319.2 572.6" id="52,48" /><path d="M 229.5 615.2 L 229.5 657.7 L 259.4 657.7" id="52,47" /><path d="M 349.1 447.3 L 349.1 460.5 L 379.0 460.5" id="49,46" /><path d="M 319.2 572.6 L 319.2 588.0 L 349.1 588.0" id="48,45" /><path d="M 259.4 657.7 L 259.4 636.3 L 379.0 636.3" id="47,44" /><path d="M 259.4 657.7 L 259.4 679.2 L 289.3 679.2" id="47,43" /><path d="M 349.1 588.0 L 349.1 601.2 L 379.0 601.2" id="45,42" /><path d="M 289.3 679.2 L 289.3 695.7 L 319.2 695.7" id="43,41" /><path d="M 319.2 695.7 L 319.2 711.0 L 349.1 711.0" id="41,40" /><path d="M 349.1 711.0 L 349.1 724.2 L 379.0 724.2" id="40,39" /><path d="M 50.0 138.6 L 50.0 64.9 L 408.9 64.9" id="76,38" /><path d="M 379.0 91.3 L 379.0 82.5 L 408.9 82.5" id="74,37" /><path d="M 379.0 91.3 L 379.0 100.1 L 408.9 100.1" id="74,36" /><path d="M 379.0 126.4 L 379.0 117.6 L 408.9 117.6" id="66,35" /><path d="M 379.0 126.4 L 379.0 135.2 L 408.9 135.2" id="66,34" /><path d="M 319.2 168.2 L 319.2 152.8 L 408.9 152.8" id="65,33" /><path d="M 349.1 183.6 L 349.1 170.4 L 408.9 170.4" id="58,32" /><path d="M 379.0 196.8 L 379.0 188.0 L 408.9 188.0" id="51,31" /><path d="M 379.0 196.8 L 379.0 205.5 L 408.9 205.5" id="51,30" /><path d="M 349.1 236.3 L 349.1 223.1 L 408.9 223.1" id="64,29" /><path d="M 379.0 249.5 L 379.0 240.7 L 408.9 240.7" id="57,28" /><path d="M 379.0 249.5 L 379.0 258.3 L 408.9 258.3" id="57,27" /><path d="M 319.2 291.3 L 319.2 275.9 L 408.9 275.9" id="63,26" /><path d="M 349.1 306.6 L 349.1 293.5 L 408.9 293.5" id="56,25" /><path d="M 379.0 319.8 L 379.0 311.0 L 408.9 311.0" id="50,24" /><path d="M 379.0 319.8 L 379.0 328.6 L 408.9 328.6" id="50,23" /><path d="M 379.0 355.0 L 379.0 346.2 L 408.9 346.2" id="62,22" /><path d="M 379.0 355.0 L 379.0 363.8 L 408.9 363.8" id="62,21" /><path d="M 379.0 390.2 L 379.0 381.4 L 408.9 381.4" id="55,20" /><path d="M 379.0 390.2 L 379.0 399.0 L 408.9 399.0" id="55,19" /><path d="M 319.2 431.9 L 319.2 416.5 L 408.9 416.5" id="54,18" /><path d="M 349.1 447.3 L 349.1 434.1 L 408.9 434.1" id="49,17" /><path d="M 379.0 460.5 L 379.0 451.7 L 408.9 451.7" id="46,16" /><path d="M 379.0 460.5 L 379.0 469.3 L 408.9 469.3" id="46,15" /><path d="M 349.1 500.1 L 349.1 486.9 L 408.9 486.9" id="60,14" /><path d="M 379.0 513.2 L 379.0 504.4 L 408.9 504.4" id="53,13" /><path d="M 379.0 513.2 L 379.0 522.0 L 408.9 522.0" id="53,12" /><path d="M 199.6 577.4 L 199.6 539.6 L 408.9 539.6" id="59,11" /><path d="M 319.2 572.6 L 319.2 557.2 L 408.9 557.2" id="48,10" /><path d="M 349.1 588.0 L 349.1 574.8 L 408.9 574.8" id="45,9" /><path d="M 379.0 601.2 L 379.0 592.4 L 408.9 592.4" id="42,8" /><path d="M 379.0 601.2 L 379.0 609.9 L 408.9 609.9" id="42,7" /><path d="M 379.0 636.3 L 379.0 627.5 L 408.9 627.5" id="44,6" /><path d="M 379.0 636.3 L 379.0 645.1 L 408.9 645.1" id="44,5" /><path d="M 289.3 679.2 L 289.3 662.7 L 408.9 662.7" id="43,4" /><path d="M 319.2 695.7 L 319.2 680.3 L 408.9 680.3" id="41,3" /><path d="M 349.1 711.0 L 349.1 697.9 L 408.9 697.9" id="40,2" /><path d="M 379.0 724.2 L 379.0 715.4 L 408.9 715.4" id="39,1" /><path d="M 379.0 724.2 L 379.0 733.0 L 408.9 733.0" id="39,0" /></g><g class="toytree-AlignEdges" style="stroke:rgb(66.3%,66.3%,66.3%);stroke-dasharray:2, 4;stroke-linecap:round;stroke-opacity:1.0;stroke-width:2"><path d="M 408.9 733.0 L 408.9 733.0" /><path d="M 408.9 715.4 L 408.9 715.4" /><path d="M 408.9 697.9 L 408.9 697.9" /><path d="M 408.9 680.3 L 408.9 680.3" /><path d="M 408.9 662.7 L 408.9 662.7" /><path d="M 408.9 645.1 L 408.9 645.1" /><path d="M 408.9 627.5 L 408.9 627.5" /><path d="M 408.9 609.9 L 408.9 609.9" /><path d="M 408.9 592.4 L 408.9 592.4" /><path d="M 408.9 574.8 L 408.9 574.8" /><path d="M 408.9 557.2 L 408.9 557.2" /><path d="M 408.9 539.6 L 408.9 539.6" /><path d="M 408.9 522.0 L 408.9 522.0" /><path d="M 408.9 504.4 L 408.9 504.4" /><path d="M 408.9 486.9 L 408.9 486.9" /><path d="M 408.9 469.3 L 408.9 469.3" /><path d="M 408.9 451.7 L 408.9 451.7" /><path d="M 408.9 434.1 L 408.9 434.1" /><path d="M 408.9 416.5 L 408.9 416.5" /><path d="M 408.9 399.0 L 408.9 399.0" /><path d="M 408.9 381.4 L 408.9 381.4" /><path d="M 408.9 363.8 L 408.9 363.8" /><path d="M 408.9 346.2 L 408.9 346.2" /><path d="M 408.9 328.6 L 408.9 328.6" /><path d="M 408.9 311.0 L 408.9 311.0" /><path d="M 408.9 293.5 L 408.9 293.5" /><path d="M 408.9 275.9 L 408.9 275.9" /><path d="M 408.9 258.3 L 408.9 258.3" /><path d="M 408.9 240.7 L 408.9 240.7" /><path d="M 408.9 223.1 L 408.9 223.1" /><path d="M 408.9 205.5 L 408.9 205.5" /><path d="M 408.9 188.0 L 408.9 188.0" /><path d="M 408.9 170.4 L 408.9 170.4" /><path d="M 408.9 152.8 L 408.9 152.8" /><path d="M 408.9 135.2 L 408.9 135.2" /><path d="M 408.9 117.6 L 408.9 117.6" /><path d="M 408.9 100.1 L 408.9 100.1" /><path d="M 408.9 82.5 L 408.9 82.5" /><path d="M 408.9 64.9 L 408.9 64.9" /></g><g class="toytree-Nodes" style="fill:rgb(100%,100%,100%);fill-opacity:1.0;stroke:rgb(0%,0%,0%);stroke-opacity:1.0;stroke-width:1"><g id="node-0" transform="translate(408.920,733.020)"><circle r="0.0" /></g><g id="node-1" transform="translate(408.920,715.438)"><circle r="0.0" /></g><g id="node-2" transform="translate(408.920,697.856)"><circle r="0.0" /></g><g id="node-3" transform="translate(408.920,680.273)"><circle r="0.0" /></g><g id="node-4" transform="translate(408.920,662.691)"><circle r="0.0" /></g><g id="node-5" transform="translate(408.920,645.109)"><circle r="0.0" /></g><g id="node-6" transform="translate(408.920,627.526)"><circle r="0.0" /></g><g id="node-7" transform="translate(408.920,609.944)"><circle r="0.0" /></g><g id="node-8" transform="translate(408.920,592.361)"><circle r="0.0" /></g><g id="node-9" transform="translate(408.920,574.779)"><circle r="0.0" /></g><g id="node-10" transform="translate(408.920,557.197)"><circle r="0.0" /></g><g id="node-11" transform="translate(408.920,539.614)"><circle r="0.0" /></g><g id="node-12" transform="translate(408.920,522.032)"><circle r="0.0" /></g><g id="node-13" transform="translate(408.920,504.449)"><circle r="0.0" /></g><g id="node-14" transform="translate(408.920,486.867)"><circle r="0.0" /></g><g id="node-15" transform="translate(408.920,469.285)"><circle r="0.0" /></g><g id="node-16" transform="translate(408.920,451.702)"><circle r="0.0" /></g><g id="node-17" transform="translate(408.920,434.120)"><circle r="0.0" /></g><g id="node-18" transform="translate(408.920,416.537)"><circle r="0.0" /></g><g id="node-19" transform="translate(408.920,398.955)"><circle r="0.0" /></g><g id="node-20" transform="translate(408.920,381.373)"><circle r="0.0" /></g><g id="node-21" transform="translate(408.920,363.790)"><circle r="0.0" /></g><g id="node-22" transform="translate(408.920,346.208)"><circle r="0.0" /></g><g id="node-23" transform="translate(408.920,328.626)"><circle r="0.0" /></g><g id="node-24" transform="translate(408.920,311.043)"><circle r="0.0" /></g><g id="node-25" transform="translate(408.920,293.461)"><circle r="0.0" /></g><g id="node-26" transform="translate(408.920,275.878)"><circle r="0.0" /></g><g id="node-27" transform="translate(408.920,258.296)"><circle r="0.0" /></g><g id="node-28" transform="translate(408.920,240.714)"><circle r="0.0" /></g><g id="node-29" transform="translate(408.920,223.131)"><circle r="0.0" /></g><g id="node-30" transform="translate(408.920,205.549)"><circle r="0.0" /></g><g id="node-31" transform="translate(408.920,187.966)"><circle r="0.0" /></g><g id="node-32" transform="translate(408.920,170.384)"><circle r="0.0" /></g><g id="node-33" transform="translate(408.920,152.802)"><circle r="0.0" /></g><g id="node-34" transform="translate(408.920,135.219)"><circle r="0.0" /></g><g id="node-35" transform="translate(408.920,117.637)"><circle r="0.0" /></g><g id="node-36" transform="translate(408.920,100.055)"><circle r="0.0" /></g><g id="node-37" transform="translate(408.920,82.472)"><circle r="0.0" /></g><g id="node-38" transform="translate(408.920,64.890)"><circle r="0.0" /></g><g id="node-39" transform="translate(379.010,724.229)"><circle r="13.5" /></g><g id="node-40" transform="translate(349.100,711.042)"><circle r="13.5" /></g><g id="node-41" transform="translate(319.190,695.658)"><circle r="13.5" /></g><g id="node-42" transform="translate(379.010,601.153)"><circle r="13.5" /></g><g id="node-43" transform="translate(289.280,679.174)"><circle r="13.5" /></g><g id="node-44" transform="translate(379.010,636.317)"><circle r="13.5" /></g><g id="node-45" transform="translate(349.100,587.966)"><circle r="13.5" /></g><g id="node-46" transform="translate(379.010,460.493)"><circle r="13.5" /></g><g id="node-47" transform="translate(259.370,657.746)"><circle r="13.5" /></g><g id="node-48" transform="translate(319.190,572.581)"><circle r="13.5" /></g><g id="node-49" transform="translate(349.100,447.307)"><circle r="13.5" /></g><g id="node-50" transform="translate(379.010,319.834)"><circle r="13.5" /></g><g id="node-51" transform="translate(379.010,196.758)"><circle r="13.5" /></g><g id="node-52" transform="translate(229.460,615.164)"><circle r="13.5" /></g><g id="node-53" transform="translate(379.010,513.241)"><circle r="13.5" /></g><g id="node-54" transform="translate(319.190,431.922)"><circle r="13.5" /></g><g id="node-55" transform="translate(379.010,390.164)"><circle r="13.5" /></g><g id="node-56" transform="translate(349.100,306.648)"><circle r="13.5" /></g><g id="node-57" transform="translate(379.010,249.505)"><circle r="13.5" /></g><g id="node-58" transform="translate(349.100,183.571)"><circle r="13.5" /></g><g id="node-59" transform="translate(199.550,577.389)"><circle r="13.5" /></g><g id="node-60" transform="translate(349.100,500.054)"><circle r="13.5" /></g><g id="node-61" transform="translate(289.280,411.043)"><circle r="13.5" /></g><g id="node-62" transform="translate(379.010,354.999)"><circle r="13.5" /></g><g id="node-63" transform="translate(319.190,291.263)"><circle r="13.5" /></g><g id="node-64" transform="translate(349.100,236.318)"><circle r="13.5" /></g><g id="node-65" transform="translate(319.190,168.186)"><circle r="13.5" /></g><g id="node-66" transform="translate(379.010,126.428)"><circle r="13.5" /></g><g id="node-67" transform="translate(169.640,538.721)"><circle r="13.5" /></g><g id="node-68" transform="translate(259.370,383.021)"><circle r="13.5" /></g><g id="node-69" transform="translate(289.280,263.791)"><circle r="13.5" /></g><g id="node-70" transform="translate(289.280,147.307)"><circle r="13.5" /></g><g id="node-71" transform="translate(139.730,460.871)"><circle r="13.5" /></g><g id="node-72" transform="translate(259.370,205.549)"><circle r="13.5" /></g><g id="node-73" transform="translate(109.820,333.210)"><circle r="13.5" /></g><g id="node-74" transform="translate(379.010,91.263)"><circle r="13.5" /></g><g id="node-75" transform="translate(79.910,212.237)"><circle r="13.5" /></g><g id="node-76" transform="translate(50.000,138.563)"><circle r="0.0" /></g></g><g class="toytree-NodeLabels" style="fill:rgb(14.9%,14.9%,14.9%);fill-opacity:1.0;font-size:15px;stroke:none"><g transform="translate(366.50,728.06)"><text>100</text></g><g transform="translate(336.59,714.87)"><text>100</text></g><g transform="translate(310.85,699.49)"><text>69</text></g><g transform="translate(366.50,604.99)"><text>100</text></g><g transform="translate(280.94,683.01)"><text>75</text></g><g transform="translate(366.50,640.15)"><text>100</text></g><g transform="translate(336.59,591.80)"><text>100</text></g><g transform="translate(370.67,464.33)"><text>79</text></g><g transform="translate(246.86,661.58)"><text>100</text></g><g transform="translate(306.68,576.41)"><text>100</text></g><g transform="translate(340.76,451.14)"><text>84</text></g><g transform="translate(366.50,323.67)"><text>100</text></g><g transform="translate(366.50,200.59)"><text>100</text></g><g transform="translate(216.95,619.00)"><text>100</text></g><g transform="translate(370.67,517.07)"><text>98</text></g><g transform="translate(306.68,435.75)"><text>100</text></g><g transform="translate(366.50,394.00)"><text>100</text></g><g transform="translate(336.59,310.48)"><text>100</text></g><g transform="translate(366.50,253.34)"><text>100</text></g><g transform="translate(336.59,187.40)"><text>100</text></g><g transform="translate(191.21,581.22)"><text>99</text></g><g transform="translate(336.59,503.89)"><text>100</text></g><g transform="translate(276.77,414.88)"><text>100</text></g><g transform="translate(366.50,358.83)"><text>100</text></g><g transform="translate(310.85,295.10)"><text>93</text></g><g transform="translate(336.59,240.15)"><text>100</text></g><g transform="translate(306.68,172.02)"><text>100</text></g><g transform="translate(366.50,130.26)"><text>100</text></g><g transform="translate(157.13,542.55)"><text>100</text></g><g transform="translate(246.86,386.85)"><text>100</text></g><g transform="translate(276.77,267.62)"><text>100</text></g><g transform="translate(280.94,151.14)"><text>85</text></g><g transform="translate(131.39,464.70)"><text>65</text></g><g transform="translate(246.86,209.38)"><text>100</text></g><g transform="translate(101.48,337.04)"><text>32</text></g><g transform="translate(370.67,95.10)"><text>99</text></g><g transform="translate(67.40,216.07)"><text>100</text></g></g><g class="toytree-TipLabels" style="fill:rgb(14.9%,14.9%,14.9%);fill-opacity:1.0;font-family:helvetica;font-size:16px;font-weight:normal;stroke:none;white-space:pre"><g transform="translate(408.92,733.02)rotate(0)"><text style="fill:rgb(100%,64.7%,0%);fill-opacity:1.0" x="15.00" y="4.09">quitensis</text></g><g transform="translate(408.92,715.44)rotate(0)"><text style="fill:rgb(100%,64.7%,0%);fill-opacity:1.0" x="15.00" y="4.09">caudatus</text></g><g transform="translate(408.92,697.86)rotate(0)"><text style="fill:rgb(100%,64.7%,0%);fill-opacity:1.0" x="15.00" y="4.09">hybridus1</text></g><g transform="translate(408.92,680.27)rotate(0)"><text style="fill:rgb(100%,64.7%,0%);fill-opacity:1.0" x="15.00" y="4.09">hypochondriacus</text></g><g transform="translate(408.92,662.69)rotate(0)"><text style="fill:rgb(100%,64.7%,0%);fill-opacity:1.0" x="15.00" y="4.09">hybridus3</text></g><g transform="translate(408.92,645.11)rotate(0)"><text style="fill:rgb(100%,64.7%,0%);fill-opacity:1.0" x="15.00" y="4.09">hybridus2</text></g><g transform="translate(408.92,627.53)rotate(0)"><text style="fill:rgb(100%,64.7%,0%);fill-opacity:1.0" x="15.00" y="4.09">cruentus</text></g><g transform="translate(408.92,609.94)rotate(0)"><text style="fill:rgb(100%,64.7%,0%);fill-opacity:1.0" x="15.00" y="4.09">retroflexus</text></g><g transform="translate(408.92,592.36)rotate(0)"><text style="fill:rgb(100%,64.7%,0%);fill-opacity:1.0" x="15.00" y="4.09">wrightii</text></g><g transform="translate(408.92,574.78)rotate(0)"><text style="fill:rgb(100%,64.7%,0%);fill-opacity:1.0" x="15.00" y="4.09">powellii</text></g><g transform="translate(408.92,557.20)rotate(0)"><text style="fill:rgb(100%,64.7%,0%);fill-opacity:1.0" x="15.00" y="4.09">acutilobus</text></g><g transform="translate(408.92,539.61)rotate(0)"><text style="fill:rgb(100%,64.7%,0%);fill-opacity:1.0" x="15.00" y="4.09">dubius</text></g><g transform="translate(408.92,522.03)rotate(0)"><text style="fill:rgb(100%,64.7%,0%);fill-opacity:1.0" x="15.00" y="4.09">palmeri</text></g><g transform="translate(408.92,504.45)rotate(0)"><text style="fill:rgb(100%,64.7%,0%);fill-opacity:1.0" x="15.00" y="4.09">watsonii</text></g><g transform="translate(408.92,486.87)rotate(0)"><text style="fill:rgb(100%,64.7%,0%);fill-opacity:1.0" x="15.00" y="4.09">spinosus</text></g><g transform="translate(408.92,469.28)rotate(0)"><text style="fill:rgb(0%,0%,100%);fill-opacity:1.0" x="15.00" y="4.09">pumilus</text></g><g transform="translate(408.92,451.70)rotate(0)"><text style="fill:rgb(0%,0%,100%);fill-opacity:1.0" x="15.00" y="4.09">acanthochiton</text></g><g transform="translate(408.92,434.12)rotate(0)"><text style="fill:rgb(0%,0%,100%);fill-opacity:1.0" x="15.00" y="4.09">greggii</text></g><g transform="translate(408.92,416.54)rotate(0)"><text style="fill:rgb(0%,0%,100%);fill-opacity:1.0" x="15.00" y="4.09">arenicola</text></g><g transform="translate(408.92,398.96)rotate(0)"><text style="fill:rgb(0%,0%,100%);fill-opacity:1.0" x="15.00" y="4.09">tuberculatus</text></g><g transform="translate(408.92,381.37)rotate(0)"><text style="fill:rgb(0%,0%,100%);fill-opacity:1.0" x="15.00" y="4.09">floridanus</text></g><g transform="translate(408.92,363.79)rotate(0)"><text style="fill:rgb(0%,0%,100%);fill-opacity:1.0" x="15.00" y="4.09">cannabinus</text></g><g transform="translate(408.92,346.21)rotate(0)"><text style="fill:rgb(0%,0%,100%);fill-opacity:1.0" x="15.00" y="4.09">australis</text></g><g transform="translate(408.92,328.63)rotate(0)"><text style="fill:rgb(100%,0%,0%);fill-opacity:1.0" x="15.00" y="4.09">viridis</text></g><g transform="translate(408.92,311.04)rotate(0)"><text style="fill:rgb(100%,0%,0%);fill-opacity:1.0" x="15.00" y="4.09">deflexus</text></g><g transform="translate(408.92,293.46)rotate(0)"><text style="fill:rgb(100%,0%,0%);fill-opacity:1.0" x="15.00" y="4.09">muricatus</text></g><g transform="translate(408.92,275.88)rotate(0)"><text style="fill:rgb(100%,0%,0%);fill-opacity:1.0" x="15.00" y="4.09">standleyanus</text></g><g transform="translate(408.92,258.30)rotate(0)"><text style="fill:rgb(50.2%,0%,50.2%);fill-opacity:1.0" x="15.00" y="4.09">graecizans</text></g><g transform="translate(408.92,240.71)rotate(0)"><text style="fill:rgb(50.2%,0%,50.2%);fill-opacity:1.0" x="15.00" y="4.09">tricolor</text></g><g transform="translate(408.92,223.13)rotate(0)"><text style="fill:rgb(50.2%,0%,50.2%);fill-opacity:1.0" x="15.00" y="4.09">blitum</text></g><g transform="translate(408.92,205.55)rotate(0)"><text style="fill:rgb(0%,50.2%,0%);fill-opacity:1.0" x="15.00" y="4.09">californicus</text></g><g transform="translate(408.92,187.97)rotate(0)"><text style="fill:rgb(0%,50.2%,0%);fill-opacity:1.0" x="15.00" y="4.09">albus</text></g><g transform="translate(408.92,170.38)rotate(0)"><text style="fill:rgb(0%,50.2%,0%);fill-opacity:1.0" x="15.00" y="4.09">blitoides</text></g><g transform="translate(408.92,152.80)rotate(0)"><text style="fill:rgb(0%,50.2%,0%);fill-opacity:1.0" x="15.00" y="4.09">torreyi</text></g><g transform="translate(408.92,135.22)rotate(0)"><text style="fill:rgb(0%,50.2%,0%);fill-opacity:1.0" x="15.00" y="4.09">crassipes</text></g><g transform="translate(408.92,117.64)rotate(0)"><text style="fill:rgb(0%,50.2%,0%);fill-opacity:1.0" x="15.00" y="4.09">tamaulipensis</text></g><g transform="translate(408.92,100.05)rotate(0)"><text style="fill:rgb(0%,50.2%,0%);fill-opacity:1.0" x="15.00" y="4.09">tucsonensis</text></g><g transform="translate(408.92,82.47)rotate(0)"><text style="fill:rgb(0%,50.2%,0%);fill-opacity:1.0" x="15.00" y="4.09">fimbriatus</text></g><g transform="translate(408.92,64.89)rotate(0)"><text style="fill:rgb(0%,0%,0%);fill-opacity:1.0" x="15.00" y="4.09">beet</text></g></g></g></g></g></svg>