<svg class="toyplot-canvas-Canvas" height="600.0px" id="ta97f33af1c164df48fd5585391518bca" preserveAspectRatio="xMidYMid meet" style="background-color:transparent;border-color:#292724;border-style:none;border-width:1.0;fill:rgb(16.1%,15.3%,14.1%);fill-opacity:1.0;font-family:Helvetica;font-size:12px;opacity:1.0;stroke:rgb(16.1%,15.3%,14.1%);stroke-opacity:1.0;stroke-width:1.0" viewBox="0 0 400.0 600.0" width="400.0px" xmlns="http://www.w3.org/2000/svg" xmlns:toyplot="http://www.sandia.gov/toyplot" xmlns:xlink="http://www.w3.org/1999/xlink"><g class="toyplot-coordinates-Cartesian" id="tad59f55d850543b1a00015ef51c7c5ae"><clipPath id="t7ba87861310247178373da5a9f26d182"><rect height="540.0" width="340.0" x="30.0" y="30.0" /></clipPath><g clip-path="url(#t7ba87861310247178373da5a9f26d182)"><g class="toytree-mark-Toytree" id="tf76c0b85b9894ced875ad6760d38aa65"><g class="toytree-Edges" style="fill:none;stroke:rgb(14.9%,14.9%,14.9%);stroke-linecap:round;stroke-opacity:1;stroke-width:2"><path d="M 51.2 246.4 L 51.2 130.9 L 102.8 130.9" id="44,43" /><path d="M 51.2 246.4 L 51.2 361.8 L 77.0 361.8" id="44,42" /><path d="M 102.8 130.9 L 102.8 83.4 L 154.4 83.4" id="43,41" /><path d="M 102.8 130.9 L 102.8 178.3 L 128.6 178.3" id="43,40" /><path d="M 77.0 361.8 L 77.0 297.3 L 154.4 297.3" id="42,39" /><path d="M 77.0 361.8 L 77.0 426.3 L 102.8 426.3" id="42,38" /><path d="M 154.4 83.4 L 154.4 102.1 L 180.2 102.1" id="41,37" /><path d="M 128.6 178.3 L 128.6 206.4 L 154.4 206.4" id="40,36" /><path d="M 154.4 297.3 L 154.4 316.0 L 180.2 316.0" id="39,35" /><path d="M 102.8 426.3 L 102.8 382.9 L 154.4 382.9" id="38,34" /><path d="M 102.8 426.3 L 102.8 469.8 L 128.6 469.8" id="38,33" /><path d="M 180.2 102.1 L 180.2 118.2 L 205.9 118.2" id="37,32" /><path d="M 154.4 206.4 L 154.4 182.3 L 205.9 182.3" id="36,31" /><path d="M 154.4 206.4 L 154.4 230.5 L 180.2 230.5" id="36,30" /><path d="M 180.2 316.0 L 180.2 332.1 L 205.9 332.1" id="35,29" /><path d="M 154.4 382.9 L 154.4 401.6 L 180.2 401.6" id="34,28" /><path d="M 128.6 469.8 L 128.6 489.9 L 154.4 489.9" id="33,27" /><path d="M 180.2 230.5 L 180.2 246.5 L 205.9 246.5" id="30,26" /><path d="M 180.2 401.6 L 180.2 417.7 L 205.9 417.7" id="28,25" /><path d="M 154.4 489.9 L 154.4 508.6 L 180.2 508.6" id="27,24" /><path d="M 180.2 508.6 L 180.2 524.6 L 205.9 524.6" id="24,23" /><path d="M 154.4 83.4 L 154.4 64.7 L 231.7 64.7" id="41,22" /><path d="M 180.2 102.1 L 180.2 86.1 L 231.7 86.1" id="37,21" /><path d="M 205.9 118.2 L 205.9 107.5 L 231.7 107.5" id="32,20" /><path d="M 205.9 118.2 L 205.9 128.9 L 231.7 128.9" id="32,19" /><path d="M 128.6 178.3 L 128.6 150.3 L 231.7 150.3" id="40,18" /><path d="M 205.9 182.3 L 205.9 171.6 L 231.7 171.6" id="31,17" /><path d="M 205.9 182.3 L 205.9 193.0 L 231.7 193.0" id="31,16" /><path d="M 180.2 230.5 L 180.2 214.4 L 231.7 214.4" id="30,15" /><path d="M 205.9 246.5 L 205.9 235.8 L 231.7 235.8" id="26,14" /><path d="M 205.9 246.5 L 205.9 257.2 L 231.7 257.2" id="26,13" /><path d="M 154.4 297.3 L 154.4 278.6 L 231.7 278.6" id="39,12" /><path d="M 180.2 316.0 L 180.2 300.0 L 231.7 300.0" id="35,11" /><path d="M 205.9 332.1 L 205.9 321.4 L 231.7 321.4" id="29,10" /><path d="M 205.9 332.1 L 205.9 342.8 L 231.7 342.8" id="29,9" /><path d="M 154.4 382.9 L 154.4 364.2 L 231.7 364.2" id="34,8" /><path d="M 180.2 401.6 L 180.2 385.6 L 231.7 385.6" id="28,7" /><path d="M 205.9 417.7 L 205.9 407.0 L 231.7 407.0" id="25,6" /><path d="M 205.9 417.7 L 205.9 428.4 L 231.7 428.4" id="25,5" /><path d="M 128.6 469.8 L 128.6 449.7 L 231.7 449.7" id="33,4" /><path d="M 154.4 489.9 L 154.4 471.1 L 231.7 471.1" id="27,3" /><path d="M 180.2 508.6 L 180.2 492.5 L 231.7 492.5" id="24,2" /><path d="M 205.9 524.6 L 205.9 513.9 L 231.7 513.9" id="23,1" /><path d="M 205.9 524.6 L 205.9 535.3 L 231.7 535.3" id="23,0" /></g><g class="toytree-AdmixEdges" style="fill:none;font-size:14px;stroke:rgba(90.6%,54.1%,76.5%,1.000);stroke-linecap:round;stroke-opacity:0.6;stroke-width:5"><path d="M 231.7 278.6 L 193.0 278.6 L 115.7 469.8 L 102.8 469.8" style="stroke:rgb(98.8%,55.3%,38.4%);stroke-opacity:0.7" /><text style="fill:#262626;fill-opacity:1.0;stroke:none;stroke-opacity:0.7;text-anchor:middle" x="154.36" y="386.20">0.366</text><path d="M 231.7 128.9 L 218.8 128.9 L 218.8 64.7 L 154.4 64.7" style="stroke:rgb(55.3%,62.7%,79.6%);stroke-opacity:0.7" /><text style="fill:#262626;fill-opacity:1.0;stroke:none;stroke-opacity:0.7;text-anchor:middle" x="218.84" y="108.77">0.338</text><path d="M 231.7 150.3 L 180.2 150.3 L 77.0 130.9 L 51.2 130.9" style="stroke:rgb(90.6%,54.1%,76.5%);stroke-opacity:0.7" /><text style="fill:#262626;fill-opacity:1.0;stroke:none;stroke-opacity:0.7;text-anchor:middle" x="128.57" y="152.56">0.218</text></g><g class="toytree-TipLabels" style="fill:rgb(14.9%,14.9%,14.9%);fill-opacity:1.0;font-family:helvetica;font-size:16px;font-weight:normal;stroke:none;white-space:pre"><g transform="translate(231.73,535.32)rotate(0)"><text style="fill:rgb(100%,64.7%,0%);fill-opacity:1.0" x="15.00" y="4.09">caudatus</text></g><g transform="translate(231.73,513.92)rotate(0)"><text style="fill:rgb(100%,64.7%,0%);fill-opacity:1.0" x="15.00" y="4.09">quitensis</text></g><g transform="translate(231.73,492.53)rotate(0)"><text style="fill:rgb(100%,64.7%,0%);fill-opacity:1.0" x="15.00" y="4.09">hybridus</text></g><g transform="translate(231.73,471.14)rotate(0)"><text style="fill:rgb(100%,64.7%,0%);fill-opacity:1.0" x="15.00" y="4.09">hypochondriacus</text></g><g transform="translate(231.73,449.75)rotate(0)"><text style="fill:rgb(100%,64.7%,0%);fill-opacity:1.0" x="15.00" y="4.09">cruentus</text></g><g transform="translate(231.73,428.35)rotate(0)"><text style="fill:rgb(100%,64.7%,0%);fill-opacity:1.0" x="15.00" y="4.09">wrightii</text></g><g transform="translate(231.73,406.96)rotate(0)"><text style="fill:rgb(100%,64.7%,0%);fill-opacity:1.0" x="15.00" y="4.09">retroflexus</text></g><g transform="translate(231.73,385.57)rotate(0)"><text style="fill:rgb(100%,64.7%,0%);fill-opacity:1.0" x="15.00" y="4.09">powellii</text></g><g transform="translate(231.73,364.18)rotate(0)"><text style="fill:rgb(100%,64.7%,0%);fill-opacity:1.0" x="15.00" y="4.09">acutilobus</text></g><g transform="translate(231.73,342.78)rotate(0)"><text style="fill:rgb(100%,64.7%,0%);fill-opacity:1.0" x="15.00" y="4.09">palmeri</text></g><g transform="translate(231.73,321.39)rotate(0)"><text style="fill:rgb(100%,64.7%,0%);fill-opacity:1.0" x="15.00" y="4.09">watsonii</text></g><g transform="translate(231.73,300.00)rotate(0)"><text style="fill:rgb(100%,64.7%,0%);fill-opacity:1.0" x="15.00" y="4.09">spinosus</text></g><g transform="translate(231.73,278.61)rotate(0)"><text style="fill:rgb(100%,64.7%,0%);fill-opacity:1.0" x="15.00" y="4.09">dubius</text></g><g transform="translate(231.73,257.22)rotate(0)"><text style="fill:rgb(50.2%,0%,50.2%);fill-opacity:1.0" x="15.00" y="4.09">tricolor</text></g><g transform="translate(231.73,235.82)rotate(0)"><text style="fill:rgb(50.2%,0%,50.2%);fill-opacity:1.0" x="15.00" y="4.09">blitum</text></g><g transform="translate(231.73,214.43)rotate(0)"><text style="fill:rgb(100%,0%,0%);fill-opacity:1.0" x="15.00" y="4.09">viridis</text></g><g transform="translate(231.73,193.04)rotate(0)"><text style="fill:rgb(0%,50.2%,0%);fill-opacity:1.0" x="15.00" y="4.09">blitoides</text></g><g transform="translate(231.73,171.65)rotate(0)"><text style="fill:rgb(0%,50.2%,0%);fill-opacity:1.0" x="15.00" y="4.09">albus</text></g><g transform="translate(231.73,150.25)rotate(0)"><text style="fill:rgb(0%,50.2%,0%);fill-opacity:1.0" x="15.00" y="4.09">fimbriatus</text></g><g transform="translate(231.73,128.86)rotate(0)"><text style="fill:rgb(0%,0%,100%);fill-opacity:1.0" x="15.00" y="4.09">tuberculatus</text></g><g transform="translate(231.73,107.47)rotate(0)"><text style="fill:rgb(0%,0%,100%);fill-opacity:1.0" x="15.00" y="4.09">arenicola</text></g><g transform="translate(231.73,86.08)rotate(0)"><text style="fill:rgb(0%,0%,100%);fill-opacity:1.0" x="15.00" y="4.09">pumilus</text></g><g transform="translate(231.73,64.68)rotate(0)"><text style="fill:rgb(0%,0%,100%);fill-opacity:1.0" x="15.00" y="4.09">cannabinus</text></g></g></g></g></g></svg>